<mxfile host="app.diagrams.net" modified="2022-06-10T18:07:46.570Z" agent="5.0 (Windows)" etag="qeC2kQCuQXkLzgvx0Ci_" version="19.0.0" type="github">
  <diagram id="slHnJ4RoC0adQhZjdGyo" name="Pagina-1">
    <mxGraphModel dx="2347" dy="1343" grid="1" gridSize="10" guides="0" tooltips="1" connect="1" arrows="1" fold="1" page="1" pageScale="1" pageWidth="1169" pageHeight="827" math="1" shadow="0">
      <root>
        <mxCell id="0" />
        <mxCell id="1" parent="0" />
        <mxCell id="GKCKslpy26udIbWONHnp-12" style="edgeStyle=orthogonalEdgeStyle;rounded=0;orthogonalLoop=1;jettySize=auto;html=1;entryX=0.5;entryY=0;entryDx=0;entryDy=0;fontSize=15;fontColor=#000000;" parent="1" source="GKCKslpy26udIbWONHnp-1" target="GKCKslpy26udIbWONHnp-9" edge="1">
          <mxGeometry relative="1" as="geometry">
            <Array as="points">
              <mxPoint x="549" y="150" />
              <mxPoint x="280" y="150" />
              <mxPoint x="280" y="170" />
            </Array>
          </mxGeometry>
        </mxCell>
        <mxCell id="GKCKslpy26udIbWONHnp-13" style="edgeStyle=orthogonalEdgeStyle;rounded=0;orthogonalLoop=1;jettySize=auto;html=1;entryX=0.5;entryY=0;entryDx=0;entryDy=0;fontSize=15;fontColor=#000000;" parent="1" source="GKCKslpy26udIbWONHnp-1" target="GKCKslpy26udIbWONHnp-10" edge="1">
          <mxGeometry relative="1" as="geometry">
            <Array as="points">
              <mxPoint x="549" y="150" />
              <mxPoint x="820" y="150" />
            </Array>
          </mxGeometry>
        </mxCell>
        <mxCell id="X2BhTEOmSYzgq8DDmFFD-187" style="rounded=0;orthogonalLoop=1;jettySize=auto;html=1;entryX=0;entryY=0.5;entryDx=0;entryDy=0;fontSize=12;endArrow=block;endFill=1;exitX=1;exitY=0.5;exitDx=0;exitDy=0;" edge="1" parent="1" source="GKCKslpy26udIbWONHnp-1" target="GKCKslpy26udIbWONHnp-6">
          <mxGeometry relative="1" as="geometry" />
        </mxCell>
        <mxCell id="GKCKslpy26udIbWONHnp-1" value="&lt;b&gt;TRANSISTORI&lt;/b&gt;" style="whiteSpace=wrap;html=1;fontSize=23;fillColor=#0000CC;fontColor=#FFFFFF;" parent="1" vertex="1">
          <mxGeometry x="459" y="70" width="180" height="60" as="geometry" />
        </mxCell>
        <mxCell id="GKCKslpy26udIbWONHnp-4" value="&lt;b&gt;&lt;span class=&quot;mw-redirect&quot;&gt;©&lt;/span&gt;&lt;/b&gt; BCPTe" style="whiteSpace=wrap;html=1;shape=partialRectangle;top=0;left=0;bottom=1;right=0;points=[[0,1],[1,1]];fillColor=none;align=center;verticalAlign=bottom;routingCenterY=0.5;snapToPoint=1;recursiveResize=0;autosize=1;treeFolding=1;treeMoving=1;newEdgeStyle={&quot;edgeStyle&quot;:&quot;entityRelationEdgeStyle&quot;,&quot;startArrow&quot;:&quot;none&quot;,&quot;endArrow&quot;:&quot;none&quot;,&quot;segment&quot;:10,&quot;curved&quot;:1};" parent="1" vertex="1">
          <mxGeometry x="40" width="80" height="20" as="geometry" />
        </mxCell>
        <mxCell id="GKCKslpy26udIbWONHnp-5" value="" style="edgeStyle=entityRelationEdgeStyle;startArrow=none;endArrow=none;segment=10;curved=1;rounded=0;" parent="1" target="GKCKslpy26udIbWONHnp-4" edge="1">
          <mxGeometry relative="1" as="geometry">
            <mxPoint y="40" as="sourcePoint" />
          </mxGeometry>
        </mxCell>
        <mxCell id="GKCKslpy26udIbWONHnp-6" value="&lt;div style=&quot;&quot; align=&quot;left&quot;&gt;&lt;font style=&quot;font-size: 12px;&quot;&gt;è un dispositivo elettronico con:&lt;br&gt;&lt;/font&gt;&lt;/div&gt;&lt;font style=&quot;font-size: 12px;&quot;&gt;- più di 2 terminali (multipolo)&lt;br&gt;- relazione \(v-i\) non-lineare&lt;/font&gt;" style="whiteSpace=wrap;html=1;strokeColor=#666666;fillColor=#f5f5f5;align=left;fontColor=#333333;" parent="1" vertex="1">
          <mxGeometry x="719" y="50" width="190" height="50" as="geometry" />
        </mxCell>
        <mxCell id="GKCKslpy26udIbWONHnp-16" style="edgeStyle=orthogonalEdgeStyle;rounded=0;orthogonalLoop=1;jettySize=auto;html=1;entryX=0.5;entryY=0;entryDx=0;entryDy=0;fontSize=15;fontColor=#000000;endArrow=none;endFill=0;" parent="1" source="GKCKslpy26udIbWONHnp-9" target="GKCKslpy26udIbWONHnp-14" edge="1">
          <mxGeometry relative="1" as="geometry">
            <Array as="points">
              <mxPoint x="279" y="220" />
              <mxPoint x="159" y="220" />
            </Array>
          </mxGeometry>
        </mxCell>
        <mxCell id="GKCKslpy26udIbWONHnp-17" style="edgeStyle=orthogonalEdgeStyle;rounded=0;orthogonalLoop=1;jettySize=auto;html=1;entryX=0.5;entryY=0;entryDx=0;entryDy=0;fontSize=15;fontColor=#000000;endArrow=none;endFill=0;" parent="1" source="GKCKslpy26udIbWONHnp-9" target="GKCKslpy26udIbWONHnp-15" edge="1">
          <mxGeometry relative="1" as="geometry">
            <Array as="points">
              <mxPoint x="279" y="220" />
              <mxPoint x="399" y="220" />
            </Array>
          </mxGeometry>
        </mxCell>
        <mxCell id="Byet9GKhUcZKY6ZSXrdh-2" style="rounded=0;orthogonalLoop=1;jettySize=auto;html=1;entryX=0.5;entryY=1;entryDx=0;entryDy=0;exitX=0;exitY=0.5;exitDx=0;exitDy=0;" parent="1" source="GKCKslpy26udIbWONHnp-9" target="Byet9GKhUcZKY6ZSXrdh-1" edge="1">
          <mxGeometry relative="1" as="geometry" />
        </mxCell>
        <mxCell id="GKCKslpy26udIbWONHnp-9" value="&lt;font style=&quot;font-size: 15px;&quot;&gt;MOSFET (MOS)&lt;br style=&quot;font-size: 15px;&quot;&gt;&lt;/font&gt;" style="whiteSpace=wrap;html=1;fontSize=15;fontColor=#000000;fillColor=#66FF66;strokeColor=#2D7600;verticalAlign=middle;align=center;" parent="1" vertex="1">
          <mxGeometry x="219" y="170" width="120" height="30" as="geometry" />
        </mxCell>
        <mxCell id="X2BhTEOmSYzgq8DDmFFD-74" style="edgeStyle=orthogonalEdgeStyle;rounded=0;orthogonalLoop=1;jettySize=auto;html=1;entryX=0.5;entryY=0;entryDx=0;entryDy=0;fontSize=11;fontColor=#000000;endArrow=none;endFill=0;" edge="1" parent="1" source="GKCKslpy26udIbWONHnp-10" target="X2BhTEOmSYzgq8DDmFFD-69">
          <mxGeometry relative="1" as="geometry">
            <Array as="points">
              <mxPoint x="820" y="220" />
              <mxPoint x="700" y="220" />
              <mxPoint x="700" y="240" />
            </Array>
          </mxGeometry>
        </mxCell>
        <mxCell id="X2BhTEOmSYzgq8DDmFFD-75" style="edgeStyle=orthogonalEdgeStyle;rounded=0;orthogonalLoop=1;jettySize=auto;html=1;entryX=0.5;entryY=0;entryDx=0;entryDy=0;fontSize=11;fontColor=#000000;endArrow=none;endFill=0;" edge="1" parent="1" source="GKCKslpy26udIbWONHnp-10" target="X2BhTEOmSYzgq8DDmFFD-70">
          <mxGeometry relative="1" as="geometry">
            <Array as="points">
              <mxPoint x="820" y="220" />
              <mxPoint x="940" y="220" />
              <mxPoint x="940" y="240" />
            </Array>
          </mxGeometry>
        </mxCell>
        <mxCell id="GKCKslpy26udIbWONHnp-10" value="BJT" style="whiteSpace=wrap;html=1;fontSize=15;fontColor=#000000;fillColor=#66FF66;strokeColor=#2D7600;" parent="1" vertex="1">
          <mxGeometry x="760" y="170" width="120" height="30" as="geometry" />
        </mxCell>
        <mxCell id="GKCKslpy26udIbWONHnp-14" value="nMOS" style="whiteSpace=wrap;html=1;fontSize=15;fontColor=#000000;strokeColor=#2D7600;fillColor=#66FF66;" parent="1" vertex="1">
          <mxGeometry x="109" y="240" width="100" height="20" as="geometry" />
        </mxCell>
        <mxCell id="GKCKslpy26udIbWONHnp-15" value="&lt;div&gt;pMOS&lt;/div&gt;" style="whiteSpace=wrap;html=1;fontSize=15;fontColor=#000000;strokeColor=#2D7600;fillColor=#66FF66;" parent="1" vertex="1">
          <mxGeometry x="349" y="240" width="100" height="20" as="geometry" />
        </mxCell>
        <mxCell id="Byet9GKhUcZKY6ZSXrdh-12" style="edgeStyle=none;rounded=0;orthogonalLoop=1;jettySize=auto;html=1;fontSize=11;entryX=0.5;entryY=0;entryDx=0;entryDy=0;" parent="1" source="xVxi0OHTIi938xalqr-v-1" target="Byet9GKhUcZKY6ZSXrdh-6" edge="1">
          <mxGeometry relative="1" as="geometry">
            <mxPoint x="280" y="430" as="targetPoint" />
          </mxGeometry>
        </mxCell>
        <mxCell id="xVxi0OHTIi938xalqr-v-1" value="" style="shape=image;verticalLabelPosition=bottom;labelBackgroundColor=default;verticalAlign=middle;aspect=fixed;imageAspect=0;image=https://raw.githubusercontent.com/BCPTe/SETM/main/images/05/pmos_simbolo.png;imageBorder=#2D7600;perimeterSpacing=0;" parent="1" vertex="1">
          <mxGeometry x="349" y="262" width="100" height="100" as="geometry" />
        </mxCell>
        <mxCell id="Byet9GKhUcZKY6ZSXrdh-11" style="edgeStyle=none;rounded=0;orthogonalLoop=1;jettySize=auto;html=1;entryX=0.5;entryY=0;entryDx=0;entryDy=0;fontSize=11;" parent="1" source="DFONRw64RP-OTkSRBfMr-1" target="Byet9GKhUcZKY6ZSXrdh-6" edge="1">
          <mxGeometry relative="1" as="geometry" />
        </mxCell>
        <mxCell id="DFONRw64RP-OTkSRBfMr-1" value="" style="shape=image;verticalLabelPosition=bottom;labelBackgroundColor=default;verticalAlign=top;aspect=fixed;imageAspect=0;image=https://raw.githubusercontent.com/BCPTe/SETM/main/images/05/nmos_simbolo.png;imageBorder=#2D7600;" parent="1" vertex="1">
          <mxGeometry x="109" y="262" width="100" height="100" as="geometry" />
        </mxCell>
        <mxCell id="Byet9GKhUcZKY6ZSXrdh-1" value="&lt;div&gt;sono transistori a 4 terminali:&lt;/div&gt;&lt;div&gt;- DRAIN&lt;/div&gt;&lt;div&gt;- SOURCE&lt;/div&gt;&lt;div&gt;- GATE&lt;/div&gt;&lt;div style=&quot;font-size: 11px;&quot;&gt;- BULK &lt;font style=&quot;font-size: 11px;&quot;&gt;(solitamente collegato ad una tensione costante o cortocircuitato con SOURCE)&lt;/font&gt;&lt;br&gt;&lt;/div&gt;" style="whiteSpace=wrap;html=1;align=left;fillColor=#f5f5f5;fontColor=#333333;strokeColor=#666666;" parent="1" vertex="1">
          <mxGeometry x="69" y="50" width="180" height="110" as="geometry" />
        </mxCell>
        <mxCell id="Byet9GKhUcZKY6ZSXrdh-14" value="" style="edgeStyle=none;rounded=0;orthogonalLoop=1;jettySize=auto;html=1;fontSize=11;" parent="1" source="Byet9GKhUcZKY6ZSXrdh-6" target="Byet9GKhUcZKY6ZSXrdh-13" edge="1">
          <mxGeometry relative="1" as="geometry" />
        </mxCell>
        <mxCell id="Byet9GKhUcZKY6ZSXrdh-17" value="" style="edgeStyle=none;rounded=0;orthogonalLoop=1;jettySize=auto;html=1;fontSize=11;" parent="1" source="Byet9GKhUcZKY6ZSXrdh-6" target="Byet9GKhUcZKY6ZSXrdh-16" edge="1">
          <mxGeometry relative="1" as="geometry" />
        </mxCell>
        <mxCell id="Byet9GKhUcZKY6ZSXrdh-18" value="&lt;div&gt;&lt;font style=&quot;font-size: 9px;&quot;&gt;porta d&#39;ingresso&lt;/font&gt;&lt;/div&gt;&lt;div&gt;&lt;font style=&quot;font-size: 9px;&quot;&gt;(di controllo)&lt;/font&gt;&lt;/div&gt;" style="edgeLabel;html=1;align=center;verticalAlign=middle;resizable=0;points=[];fontSize=10;" parent="Byet9GKhUcZKY6ZSXrdh-17" vertex="1" connectable="0">
          <mxGeometry x="0.2384" y="-1" relative="1" as="geometry">
            <mxPoint x="14" y="-1" as="offset" />
          </mxGeometry>
        </mxCell>
        <mxCell id="Byet9GKhUcZKY6ZSXrdh-22" value="" style="edgeStyle=none;rounded=0;orthogonalLoop=1;jettySize=auto;html=1;fontSize=9;" parent="1" source="Byet9GKhUcZKY6ZSXrdh-6" target="Byet9GKhUcZKY6ZSXrdh-21" edge="1">
          <mxGeometry relative="1" as="geometry" />
        </mxCell>
        <mxCell id="Byet9GKhUcZKY6ZSXrdh-23" value="&lt;div&gt;porta d&#39;uscita&lt;/div&gt;&lt;div&gt;(controllata)&lt;/div&gt;" style="edgeLabel;html=1;align=center;verticalAlign=middle;resizable=0;points=[];fontSize=9;" parent="Byet9GKhUcZKY6ZSXrdh-22" vertex="1" connectable="0">
          <mxGeometry x="-0.5313" y="-2" relative="1" as="geometry">
            <mxPoint x="17" y="-4" as="offset" />
          </mxGeometry>
        </mxCell>
        <mxCell id="Byet9GKhUcZKY6ZSXrdh-6" value="&lt;div align=&quot;left&quot;&gt;considerando il terminale SOURCE comune, si individuano 2 porte:&lt;/div&gt;&lt;div align=&quot;left&quot;&gt;- GATE-SOURCE (GS)&lt;/div&gt;&lt;div align=&quot;left&quot;&gt;- DRAIN-SOURCE (DS)&lt;br&gt;&lt;/div&gt;" style="whiteSpace=wrap;html=1;fontSize=11;align=left;fillColor=#f5f5f5;fontColor=#333333;strokeColor=#666666;" parent="1" vertex="1">
          <mxGeometry x="190" y="390" width="180" height="60" as="geometry" />
        </mxCell>
        <mxCell id="Byet9GKhUcZKY6ZSXrdh-13" value="&lt;div align=&quot;center&quot;&gt;il transistore MOS è quindi un doppio bipolo lineare&lt;/div&gt;" style="whiteSpace=wrap;html=1;fontSize=11;align=center;fillColor=#dae8fc;strokeColor=#6c8ebf;" parent="1" vertex="1">
          <mxGeometry x="200" y="490" width="160" height="40" as="geometry" />
        </mxCell>
        <mxCell id="Byet9GKhUcZKY6ZSXrdh-15" value="" style="shape=image;verticalLabelPosition=bottom;labelBackgroundColor=default;verticalAlign=top;aspect=fixed;imageAspect=0;image=https://raw.githubusercontent.com/BCPTe/SETM/main/images/05/mos_doppiobipolo.png;imageBorder=#6C8EBF;" parent="1" vertex="1">
          <mxGeometry x="200" y="532" width="160" height="71.6" as="geometry" />
        </mxCell>
        <mxCell id="Byet9GKhUcZKY6ZSXrdh-25" value="" style="edgeStyle=none;rounded=0;orthogonalLoop=1;jettySize=auto;html=1;fontSize=9;" parent="1" source="Byet9GKhUcZKY6ZSXrdh-16" edge="1">
          <mxGeometry relative="1" as="geometry">
            <mxPoint x="80" y="460" as="targetPoint" />
          </mxGeometry>
        </mxCell>
        <mxCell id="Byet9GKhUcZKY6ZSXrdh-16" value="&lt;div align=&quot;center&quot;&gt;GS&lt;/div&gt;" style="whiteSpace=wrap;html=1;fontSize=11;align=center;fillColor=#d5e8d4;strokeColor=#82b366;" parent="1" vertex="1">
          <mxGeometry x="60" y="410" width="40" height="20" as="geometry" />
        </mxCell>
        <mxCell id="Byet9GKhUcZKY6ZSXrdh-27" value="" style="edgeStyle=none;rounded=0;orthogonalLoop=1;jettySize=auto;html=1;fontSize=9;exitX=0.5;exitY=1;exitDx=0;exitDy=0;entryX=0.5;entryY=0;entryDx=0;entryDy=0;" parent="1" source="Byet9GKhUcZKY6ZSXrdh-21" target="Byet9GKhUcZKY6ZSXrdh-26" edge="1">
          <mxGeometry relative="1" as="geometry">
            <mxPoint x="488.65999999999997" y="430" as="sourcePoint" />
            <mxPoint x="488.65999999999997" y="460" as="targetPoint" />
          </mxGeometry>
        </mxCell>
        <mxCell id="Byet9GKhUcZKY6ZSXrdh-21" value="&lt;div align=&quot;center&quot;&gt;DS&lt;/div&gt;" style="whiteSpace=wrap;html=1;fontSize=11;align=center;fillColor=#f8cecc;strokeColor=#b85450;" parent="1" vertex="1">
          <mxGeometry x="450" y="410" width="40" height="20" as="geometry" />
        </mxCell>
        <mxCell id="Byet9GKhUcZKY6ZSXrdh-24" value="&lt;div&gt;variabile indipendente&lt;/div&gt;&lt;div&gt;\(v_{GS}\)&lt;br&gt;&lt;/div&gt;" style="whiteSpace=wrap;html=1;fontSize=11;fillColor=#d5e8d4;strokeColor=#82b366;" parent="1" vertex="1">
          <mxGeometry x="20" y="460" width="120" height="40" as="geometry" />
        </mxCell>
        <mxCell id="Byet9GKhUcZKY6ZSXrdh-26" value="&lt;div&gt;variabile dipendente&lt;/div&gt;&lt;div&gt;\(i_D\)&lt;br&gt;&lt;/div&gt;" style="whiteSpace=wrap;html=1;fontSize=11;fillColor=#f8cecc;strokeColor=#b85450;" parent="1" vertex="1">
          <mxGeometry x="420" y="460" width="100" height="40" as="geometry" />
        </mxCell>
        <mxCell id="Byet9GKhUcZKY6ZSXrdh-38" style="edgeStyle=none;rounded=0;orthogonalLoop=1;jettySize=auto;html=1;entryX=0.5;entryY=0;entryDx=0;entryDy=0;fontSize=10;" parent="1" source="Byet9GKhUcZKY6ZSXrdh-33" target="Byet9GKhUcZKY6ZSXrdh-36" edge="1">
          <mxGeometry relative="1" as="geometry" />
        </mxCell>
        <mxCell id="Byet9GKhUcZKY6ZSXrdh-39" value="alla porta d&#39;ingresso" style="edgeLabel;html=1;align=center;verticalAlign=middle;resizable=0;points=[];fontSize=10;" parent="Byet9GKhUcZKY6ZSXrdh-38" vertex="1" connectable="0">
          <mxGeometry x="0.2302" y="2" relative="1" as="geometry">
            <mxPoint x="8" y="-7" as="offset" />
          </mxGeometry>
        </mxCell>
        <mxCell id="Byet9GKhUcZKY6ZSXrdh-42" style="edgeStyle=none;rounded=0;orthogonalLoop=1;jettySize=auto;html=1;entryX=0.5;entryY=0;entryDx=0;entryDy=0;fontSize=10;" parent="1" source="Byet9GKhUcZKY6ZSXrdh-33" target="Byet9GKhUcZKY6ZSXrdh-37" edge="1">
          <mxGeometry relative="1" as="geometry" />
        </mxCell>
        <mxCell id="Byet9GKhUcZKY6ZSXrdh-43" value="alla porta d&#39;uscita" style="edgeLabel;html=1;align=center;verticalAlign=middle;resizable=0;points=[];fontSize=10;" parent="Byet9GKhUcZKY6ZSXrdh-42" vertex="1" connectable="0">
          <mxGeometry x="-0.0727" y="-1" relative="1" as="geometry">
            <mxPoint x="3" y="6" as="offset" />
          </mxGeometry>
        </mxCell>
        <mxCell id="Byet9GKhUcZKY6ZSXrdh-33" value="&lt;div style=&quot;font-size: 13px;&quot;&gt;&lt;font style=&quot;font-size: 13px;&quot;&gt;CARATTERISTICA STATICA&lt;br&gt;&lt;/font&gt;&lt;/div&gt;" style="whiteSpace=wrap;html=1;fontSize=23;fillColor=#0000CC;fontColor=#FFFFFF;" parent="1" vertex="1">
          <mxGeometry x="200" y="640" width="160" height="40" as="geometry" />
        </mxCell>
        <mxCell id="Byet9GKhUcZKY6ZSXrdh-36" value="$$i_G = i_G(v_{GS},v_{DS}) = 0 \quad \forall v_{GS}, \forall v_{DS}$$" style="text;whiteSpace=wrap;html=1;fontSize=10;verticalAlign=middle;align=center;labelBorderColor=none;strokeColor=#666666;strokeWidth=1;fillColor=#f5f5f5;fontColor=#333333;" parent="1" vertex="1">
          <mxGeometry x="60" y="760" width="200" height="30" as="geometry" />
        </mxCell>
        <mxCell id="Byet9GKhUcZKY6ZSXrdh-37" value="$$i_D = i_D(v_{GS},v_{DS})$$" style="text;whiteSpace=wrap;html=1;fontSize=10;verticalAlign=middle;align=center;labelBorderColor=none;strokeColor=#666666;strokeWidth=1;fillColor=#f5f5f5;fontColor=#333333;" parent="1" vertex="1">
          <mxGeometry x="320" y="760" width="160" height="30" as="geometry" />
        </mxCell>
        <mxCell id="X2BhTEOmSYzgq8DDmFFD-45" style="edgeStyle=orthogonalEdgeStyle;rounded=0;orthogonalLoop=1;jettySize=auto;html=1;entryX=0;entryY=0.5;entryDx=0;entryDy=0;fontSize=12;fontColor=#000000;endArrow=none;endFill=0;" edge="1" parent="1" source="X2BhTEOmSYzgq8DDmFFD-2" target="X2BhTEOmSYzgq8DDmFFD-13">
          <mxGeometry relative="1" as="geometry">
            <Array as="points">
              <mxPoint x="1460" y="150" />
              <mxPoint x="1210" y="150" />
              <mxPoint x="1210" y="320" />
            </Array>
          </mxGeometry>
        </mxCell>
        <mxCell id="X2BhTEOmSYzgq8DDmFFD-52" style="edgeStyle=orthogonalEdgeStyle;rounded=0;orthogonalLoop=1;jettySize=auto;html=1;entryX=0;entryY=0.5;entryDx=0;entryDy=0;fontSize=12;fontColor=#000000;endArrow=none;endFill=0;" edge="1" parent="1" source="X2BhTEOmSYzgq8DDmFFD-2" target="X2BhTEOmSYzgq8DDmFFD-12">
          <mxGeometry relative="1" as="geometry">
            <Array as="points">
              <mxPoint x="1460" y="150" />
              <mxPoint x="1210" y="150" />
              <mxPoint x="1210" y="200" />
            </Array>
          </mxGeometry>
        </mxCell>
        <mxCell id="X2BhTEOmSYzgq8DDmFFD-2" value="nMOS" style="whiteSpace=wrap;html=1;fontSize=15;fillColor=#66FF66;fontColor=#000000;" vertex="1" parent="1">
          <mxGeometry x="1420" y="110" width="80" height="30" as="geometry" />
        </mxCell>
        <mxCell id="X2BhTEOmSYzgq8DDmFFD-3" value="$$i_D = 0$$" style="whiteSpace=wrap;html=1;strokeColor=#666666;fillColor=#f5f5f5;fontColor=#333333;" vertex="1" parent="1">
          <mxGeometry x="1430" y="180" width="60" height="40" as="geometry" />
        </mxCell>
        <mxCell id="X2BhTEOmSYzgq8DDmFFD-5" value="$$i_D = \frac{\beta}{2}(v_{GS}-V_{TH})^2(1+\lambda v_{DS})$$" style="whiteSpace=wrap;html=1;strokeColor=#666666;fillColor=#f5f5f5;fontColor=#333333;" vertex="1" parent="1">
          <mxGeometry x="1430" y="240" width="220" height="40" as="geometry" />
        </mxCell>
        <mxCell id="X2BhTEOmSYzgq8DDmFFD-47" style="edgeStyle=orthogonalEdgeStyle;rounded=0;orthogonalLoop=1;jettySize=auto;html=1;fontSize=12;fontColor=#000000;endArrow=block;endFill=1;entryX=0;entryY=0.5;entryDx=0;entryDy=0;" edge="1" parent="1" source="X2BhTEOmSYzgq8DDmFFD-12" target="X2BhTEOmSYzgq8DDmFFD-3">
          <mxGeometry relative="1" as="geometry">
            <mxPoint x="1420" y="200" as="targetPoint" />
          </mxGeometry>
        </mxCell>
        <mxCell id="X2BhTEOmSYzgq8DDmFFD-12" value="&lt;div style=&quot;font-size: 9px;&quot;&gt;REGIONE DI INTERDIZIONE (&lt;b&gt;OFF&lt;/b&gt;):&lt;/div&gt;&lt;div style=&quot;font-size: 9px;&quot;&gt;\( v_{GS} &amp;lt; V_{TH} \)&lt;br style=&quot;font-size: 9px;&quot;&gt;&lt;/div&gt;" style="whiteSpace=wrap;html=1;fontSize=9;fillColor=#fff2cc;strokeColor=#d6b656;" vertex="1" parent="1">
          <mxGeometry x="1230" y="180" width="160" height="40" as="geometry" />
        </mxCell>
        <mxCell id="X2BhTEOmSYzgq8DDmFFD-49" style="edgeStyle=orthogonalEdgeStyle;rounded=0;orthogonalLoop=1;jettySize=auto;html=1;fontSize=12;fontColor=#000000;endArrow=block;endFill=1;entryX=0;entryY=0.5;entryDx=0;entryDy=0;" edge="1" parent="1" source="X2BhTEOmSYzgq8DDmFFD-13" target="X2BhTEOmSYzgq8DDmFFD-46">
          <mxGeometry relative="1" as="geometry">
            <mxPoint x="1420" y="320" as="targetPoint" />
          </mxGeometry>
        </mxCell>
        <mxCell id="X2BhTEOmSYzgq8DDmFFD-13" value="&lt;div style=&quot;font-size: 9px;&quot;&gt;REGIONE TRIODO (&lt;b&gt;ON&lt;/b&gt;):&lt;/div&gt;&lt;div style=&quot;font-size: 9px;&quot;&gt;\( v_{GS} &amp;gt; V_{TH} \wedge v_{DS} &amp;lt; v_{GS}-V_{TH} \)&lt;br style=&quot;font-size: 9px;&quot;&gt;&lt;/div&gt;" style="whiteSpace=wrap;html=1;fontSize=9;fillColor=#fff2cc;strokeColor=#d6b656;" vertex="1" parent="1">
          <mxGeometry x="1230" y="300" width="160" height="40" as="geometry" />
        </mxCell>
        <mxCell id="X2BhTEOmSYzgq8DDmFFD-48" style="edgeStyle=orthogonalEdgeStyle;rounded=0;orthogonalLoop=1;jettySize=auto;html=1;fontSize=12;fontColor=#000000;endArrow=block;endFill=1;entryX=0;entryY=0.5;entryDx=0;entryDy=0;" edge="1" parent="1" source="X2BhTEOmSYzgq8DDmFFD-14" target="X2BhTEOmSYzgq8DDmFFD-5">
          <mxGeometry relative="1" as="geometry">
            <mxPoint x="1420" y="260" as="targetPoint" />
          </mxGeometry>
        </mxCell>
        <mxCell id="X2BhTEOmSYzgq8DDmFFD-14" value="&lt;div style=&quot;font-size: 9px;&quot;&gt;REGIONE DI SATURAZIONE:&lt;/div&gt;&lt;div style=&quot;font-size: 9px;&quot;&gt;\( v_{GS} &amp;gt; V_{TH} \wedge v_{DS} &amp;gt; v_{GS}-V_{TH} \)&lt;/div&gt;" style="whiteSpace=wrap;html=1;fontSize=9;fillColor=#fff2cc;strokeColor=#d6b656;" vertex="1" parent="1">
          <mxGeometry x="1230" y="240" width="160" height="40" as="geometry" />
        </mxCell>
        <mxCell id="X2BhTEOmSYzgq8DDmFFD-41" style="edgeStyle=orthogonalEdgeStyle;rounded=0;orthogonalLoop=1;jettySize=auto;html=1;entryX=0.5;entryY=0;entryDx=0;entryDy=0;fontSize=9;fontColor=#000000;endArrow=block;endFill=1;" edge="1" parent="1" source="X2BhTEOmSYzgq8DDmFFD-20" target="X2BhTEOmSYzgq8DDmFFD-2">
          <mxGeometry relative="1" as="geometry">
            <Array as="points">
              <mxPoint x="1760" y="90" />
              <mxPoint x="1460" y="90" />
            </Array>
          </mxGeometry>
        </mxCell>
        <mxCell id="X2BhTEOmSYzgq8DDmFFD-42" style="edgeStyle=orthogonalEdgeStyle;rounded=0;orthogonalLoop=1;jettySize=auto;html=1;entryX=0.5;entryY=0;entryDx=0;entryDy=0;fontSize=9;fontColor=#000000;endArrow=block;endFill=1;" edge="1" parent="1" source="X2BhTEOmSYzgq8DDmFFD-20" target="X2BhTEOmSYzgq8DDmFFD-34">
          <mxGeometry relative="1" as="geometry">
            <Array as="points">
              <mxPoint x="1760" y="90" />
              <mxPoint x="2060" y="90" />
              <mxPoint x="2060" y="110" />
            </Array>
          </mxGeometry>
        </mxCell>
        <mxCell id="X2BhTEOmSYzgq8DDmFFD-20" value="&lt;div style=&quot;font-size: 15px;&quot;&gt;&lt;font style=&quot;font-size: 15px;&quot;&gt;CARATTERISTICHE D&#39;USCITA MOS&lt;br style=&quot;font-size: 15px;&quot;&gt;&lt;/font&gt;&lt;/div&gt;" style="whiteSpace=wrap;html=1;fontSize=15;fillColor=#0000CC;fontColor=#FFFFFF;" vertex="1" parent="1">
          <mxGeometry x="1680" y="20" width="160" height="50" as="geometry" />
        </mxCell>
        <mxCell id="X2BhTEOmSYzgq8DDmFFD-64" style="edgeStyle=orthogonalEdgeStyle;rounded=0;orthogonalLoop=1;jettySize=auto;html=1;entryX=0;entryY=0.5;entryDx=0;entryDy=0;fontSize=12;fontColor=#000000;endArrow=none;endFill=0;" edge="1" parent="1" source="X2BhTEOmSYzgq8DDmFFD-34" target="X2BhTEOmSYzgq8DDmFFD-58">
          <mxGeometry relative="1" as="geometry">
            <Array as="points">
              <mxPoint x="2060" y="150" />
              <mxPoint x="1810" y="150" />
              <mxPoint x="1810" y="200" />
            </Array>
          </mxGeometry>
        </mxCell>
        <mxCell id="X2BhTEOmSYzgq8DDmFFD-65" style="edgeStyle=orthogonalEdgeStyle;rounded=0;orthogonalLoop=1;jettySize=auto;html=1;entryX=0;entryY=0.5;entryDx=0;entryDy=0;fontSize=12;fontColor=#000000;endArrow=none;endFill=0;" edge="1" parent="1" source="X2BhTEOmSYzgq8DDmFFD-34" target="X2BhTEOmSYzgq8DDmFFD-62">
          <mxGeometry relative="1" as="geometry">
            <Array as="points">
              <mxPoint x="2060" y="150" />
              <mxPoint x="1810" y="150" />
              <mxPoint x="1810" y="260" />
            </Array>
          </mxGeometry>
        </mxCell>
        <mxCell id="X2BhTEOmSYzgq8DDmFFD-66" style="edgeStyle=orthogonalEdgeStyle;rounded=0;orthogonalLoop=1;jettySize=auto;html=1;entryX=0;entryY=0.5;entryDx=0;entryDy=0;fontSize=12;fontColor=#000000;endArrow=none;endFill=0;" edge="1" parent="1">
          <mxGeometry relative="1" as="geometry">
            <mxPoint x="2059.52" y="140" as="sourcePoint" />
            <mxPoint x="1830" y="320" as="targetPoint" />
            <Array as="points">
              <mxPoint x="2060" y="150" />
              <mxPoint x="1810" y="150" />
              <mxPoint x="1810" y="320" />
            </Array>
          </mxGeometry>
        </mxCell>
        <mxCell id="X2BhTEOmSYzgq8DDmFFD-68" value="$$v_{SD} = -v_{DS} \wedge v_{SG} = -v_{GS}$$" style="edgeLabel;html=1;align=center;verticalAlign=middle;resizable=0;points=[];fontSize=11;fontColor=#000000;labelBackgroundColor=default;spacing=2;spacingLeft=0;labelBorderColor=none;" vertex="1" connectable="0" parent="X2BhTEOmSYzgq8DDmFFD-66">
          <mxGeometry x="-0.2008" y="1" relative="1" as="geometry">
            <mxPoint x="35" as="offset" />
          </mxGeometry>
        </mxCell>
        <mxCell id="X2BhTEOmSYzgq8DDmFFD-34" value="pMOS" style="whiteSpace=wrap;html=1;fontSize=15;fillColor=#66FF66;fontColor=#000000;" vertex="1" parent="1">
          <mxGeometry x="2019" y="110" width="81" height="30" as="geometry" />
        </mxCell>
        <mxCell id="X2BhTEOmSYzgq8DDmFFD-46" value="$$i_D = \beta v_{DS}(v_{GS}-V_{TH}-\frac{v_{DS}}{2}) (1+\lambda v_{DS})$$" style="text;whiteSpace=wrap;html=1;fontSize=12;fontColor=#333333;verticalAlign=middle;align=center;fillColor=#f5f5f5;strokeColor=#666666;" vertex="1" parent="1">
          <mxGeometry x="1430" y="300" width="280" height="40" as="geometry" />
        </mxCell>
        <mxCell id="X2BhTEOmSYzgq8DDmFFD-51" style="edgeStyle=orthogonalEdgeStyle;rounded=0;orthogonalLoop=1;jettySize=auto;html=1;entryX=0;entryY=0.5;entryDx=0;entryDy=0;fontSize=12;fontColor=#000000;endArrow=none;endFill=0;" edge="1" parent="1" target="X2BhTEOmSYzgq8DDmFFD-14">
          <mxGeometry relative="1" as="geometry">
            <mxPoint x="1469.7416279069766" y="139.99" as="sourcePoint" />
            <mxPoint x="1210.23" y="259.99" as="targetPoint" />
            <Array as="points">
              <mxPoint x="1460" y="140" />
              <mxPoint x="1460" y="150" />
              <mxPoint x="1210" y="150" />
              <mxPoint x="1210" y="260" />
            </Array>
          </mxGeometry>
        </mxCell>
        <mxCell id="X2BhTEOmSYzgq8DDmFFD-55" value="$$i_D = 0$$" style="whiteSpace=wrap;html=1;strokeColor=#666666;fillColor=#f5f5f5;fontColor=#333333;" vertex="1" parent="1">
          <mxGeometry x="2030" y="180" width="60" height="40" as="geometry" />
        </mxCell>
        <mxCell id="X2BhTEOmSYzgq8DDmFFD-56" value="$$i_D = \frac{\beta}{2}(v_{SG}-V_{TH})^2(1+\lambda v_{SD})$$" style="whiteSpace=wrap;html=1;strokeColor=#666666;fillColor=#f5f5f5;fontColor=#333333;" vertex="1" parent="1">
          <mxGeometry x="2030" y="240" width="220" height="40" as="geometry" />
        </mxCell>
        <mxCell id="X2BhTEOmSYzgq8DDmFFD-57" style="edgeStyle=orthogonalEdgeStyle;rounded=0;orthogonalLoop=1;jettySize=auto;html=1;fontSize=12;fontColor=#000000;endArrow=block;endFill=1;entryX=0;entryY=0.5;entryDx=0;entryDy=0;" edge="1" source="X2BhTEOmSYzgq8DDmFFD-58" target="X2BhTEOmSYzgq8DDmFFD-55" parent="1">
          <mxGeometry relative="1" as="geometry">
            <mxPoint x="2020" y="200" as="targetPoint" />
          </mxGeometry>
        </mxCell>
        <mxCell id="X2BhTEOmSYzgq8DDmFFD-58" value="&lt;div style=&quot;font-size: 9px;&quot;&gt;REGIONE DI INTERDIZIONE (&lt;b&gt;OFF&lt;/b&gt;):&lt;/div&gt;&lt;div style=&quot;font-size: 9px;&quot;&gt;\( v_{SG} &amp;lt; V_{TH} \)&lt;br style=&quot;font-size: 9px;&quot;&gt;&lt;/div&gt;" style="whiteSpace=wrap;html=1;fontSize=9;fillColor=#f8cecc;strokeColor=#b85450;" vertex="1" parent="1">
          <mxGeometry x="1830" y="180" width="160" height="40" as="geometry" />
        </mxCell>
        <mxCell id="X2BhTEOmSYzgq8DDmFFD-59" style="edgeStyle=orthogonalEdgeStyle;rounded=0;orthogonalLoop=1;jettySize=auto;html=1;fontSize=12;fontColor=#000000;endArrow=block;endFill=1;entryX=0;entryY=0.5;entryDx=0;entryDy=0;" edge="1" source="X2BhTEOmSYzgq8DDmFFD-60" parent="1">
          <mxGeometry relative="1" as="geometry">
            <mxPoint x="2030" y="320" as="targetPoint" />
          </mxGeometry>
        </mxCell>
        <mxCell id="X2BhTEOmSYzgq8DDmFFD-60" value="&lt;div style=&quot;font-size: 9px;&quot;&gt;REGIONE TRIODO (&lt;b&gt;ON&lt;/b&gt;):&lt;/div&gt;&lt;div style=&quot;font-size: 9px;&quot;&gt;\( v_{SG} &amp;gt; V_{TH} \wedge v_{SD} &amp;lt; v_{SG}-V_{TH} \)&lt;br style=&quot;font-size: 9px;&quot;&gt;&lt;/div&gt;" style="whiteSpace=wrap;html=1;fontSize=9;fillColor=#f8cecc;strokeColor=#b85450;" vertex="1" parent="1">
          <mxGeometry x="1830" y="300" width="160" height="40" as="geometry" />
        </mxCell>
        <mxCell id="X2BhTEOmSYzgq8DDmFFD-61" style="edgeStyle=orthogonalEdgeStyle;rounded=0;orthogonalLoop=1;jettySize=auto;html=1;fontSize=12;fontColor=#000000;endArrow=block;endFill=1;entryX=0;entryY=0.5;entryDx=0;entryDy=0;" edge="1" source="X2BhTEOmSYzgq8DDmFFD-62" target="X2BhTEOmSYzgq8DDmFFD-56" parent="1">
          <mxGeometry relative="1" as="geometry">
            <mxPoint x="2020" y="260" as="targetPoint" />
          </mxGeometry>
        </mxCell>
        <mxCell id="X2BhTEOmSYzgq8DDmFFD-62" value="&lt;div style=&quot;font-size: 9px;&quot;&gt;REGIONE DI SATURAZIONE:&lt;/div&gt;&lt;div style=&quot;font-size: 9px;&quot;&gt;\( v_{SG} &amp;gt; V_{TH} \wedge v_{SD} &amp;gt; v_{SG}-V_{TH} \)&lt;/div&gt;" style="whiteSpace=wrap;html=1;fontSize=9;fillColor=#f8cecc;strokeColor=#b85450;" vertex="1" parent="1">
          <mxGeometry x="1830" y="240" width="160" height="40" as="geometry" />
        </mxCell>
        <mxCell id="X2BhTEOmSYzgq8DDmFFD-63" value="$$i_D = \beta v_{SD}(v_{SG}-V_{TH}-\frac{v_{SD}}{2}) (1+\lambda v_{SD})$$" style="text;whiteSpace=wrap;html=1;fontSize=12;fontColor=#333333;verticalAlign=middle;align=center;fillColor=#f5f5f5;strokeColor=#666666;" vertex="1" parent="1">
          <mxGeometry x="2030" y="300" width="280" height="40" as="geometry" />
        </mxCell>
        <mxCell id="X2BhTEOmSYzgq8DDmFFD-69" value="npn" style="whiteSpace=wrap;html=1;fontSize=15;fontColor=#000000;strokeColor=#2D7600;fillColor=#66FF66;" vertex="1" parent="1">
          <mxGeometry x="649" y="240" width="100" height="20" as="geometry" />
        </mxCell>
        <mxCell id="X2BhTEOmSYzgq8DDmFFD-70" value="pnp" style="whiteSpace=wrap;html=1;fontSize=15;fontColor=#000000;strokeColor=#2D7600;fillColor=#66FF66;" vertex="1" parent="1">
          <mxGeometry x="889" y="240" width="100" height="20" as="geometry" />
        </mxCell>
        <mxCell id="X2BhTEOmSYzgq8DDmFFD-81" style="edgeStyle=none;rounded=0;orthogonalLoop=1;jettySize=auto;html=1;entryX=0.5;entryY=0;entryDx=0;entryDy=0;fontSize=11;fontColor=#000000;endArrow=block;endFill=1;" edge="1" parent="1" source="X2BhTEOmSYzgq8DDmFFD-71" target="X2BhTEOmSYzgq8DDmFFD-76">
          <mxGeometry relative="1" as="geometry" />
        </mxCell>
        <mxCell id="X2BhTEOmSYzgq8DDmFFD-71" value="" style="shape=image;verticalLabelPosition=bottom;labelBackgroundColor=default;verticalAlign=middle;aspect=fixed;imageAspect=0;image=https://raw.githubusercontent.com/BCPTe/SETM/main/images/05/pnp_simbolo.png;imageBorder=#2D7600;perimeterSpacing=0;" vertex="1" parent="1">
          <mxGeometry x="889" y="262" width="100" height="100" as="geometry" />
        </mxCell>
        <mxCell id="X2BhTEOmSYzgq8DDmFFD-80" style="edgeStyle=none;rounded=0;orthogonalLoop=1;jettySize=auto;html=1;entryX=0.5;entryY=0;entryDx=0;entryDy=0;fontSize=11;fontColor=#000000;endArrow=block;endFill=1;" edge="1" parent="1" source="X2BhTEOmSYzgq8DDmFFD-72" target="X2BhTEOmSYzgq8DDmFFD-76">
          <mxGeometry relative="1" as="geometry" />
        </mxCell>
        <mxCell id="X2BhTEOmSYzgq8DDmFFD-72" value="" style="shape=image;verticalLabelPosition=bottom;labelBackgroundColor=default;verticalAlign=top;aspect=fixed;imageAspect=0;image=https://raw.githubusercontent.com/BCPTe/SETM/main/images/05/npn_simbolo.png;imageBorder=#2D7600;" vertex="1" parent="1">
          <mxGeometry x="649" y="262" width="100" height="100" as="geometry" />
        </mxCell>
        <mxCell id="X2BhTEOmSYzgq8DDmFFD-92" style="edgeStyle=none;rounded=0;orthogonalLoop=1;jettySize=auto;html=1;entryX=1;entryY=0.5;entryDx=0;entryDy=0;fontSize=11;fontColor=#000000;endArrow=classic;endFill=1;" edge="1" parent="1" source="X2BhTEOmSYzgq8DDmFFD-76" target="X2BhTEOmSYzgq8DDmFFD-90">
          <mxGeometry relative="1" as="geometry" />
        </mxCell>
        <mxCell id="X2BhTEOmSYzgq8DDmFFD-93" value="&lt;div&gt;&lt;font style=&quot;font-size: 9px;&quot;&gt;porta d&#39;ingresso&lt;/font&gt;&lt;/div&gt;&lt;div&gt;&lt;font style=&quot;font-size: 9px;&quot;&gt;(di controllo)&lt;/font&gt;&lt;/div&gt;" style="edgeLabel;html=1;align=center;verticalAlign=middle;resizable=0;points=[];fontSize=11;fontColor=#000000;" vertex="1" connectable="0" parent="X2BhTEOmSYzgq8DDmFFD-92">
          <mxGeometry x="-0.1031" relative="1" as="geometry">
            <mxPoint x="-1" y="-1" as="offset" />
          </mxGeometry>
        </mxCell>
        <mxCell id="X2BhTEOmSYzgq8DDmFFD-95" style="edgeStyle=none;rounded=0;orthogonalLoop=1;jettySize=auto;html=1;entryX=0;entryY=0.5;entryDx=0;entryDy=0;fontSize=11;fontColor=#000000;endArrow=classic;endFill=1;" edge="1" parent="1" source="X2BhTEOmSYzgq8DDmFFD-76" target="X2BhTEOmSYzgq8DDmFFD-86">
          <mxGeometry relative="1" as="geometry" />
        </mxCell>
        <mxCell id="X2BhTEOmSYzgq8DDmFFD-96" value="&lt;div&gt;&lt;font style=&quot;font-size: 9px;&quot;&gt;porta d&#39;uscita&lt;/font&gt;&lt;/div&gt;&lt;div&gt;&lt;font style=&quot;font-size: 9px;&quot;&gt;(controllata)&lt;/font&gt;&lt;/div&gt;" style="edgeLabel;html=1;align=center;verticalAlign=middle;resizable=0;points=[];fontSize=11;fontColor=#000000;" vertex="1" connectable="0" parent="X2BhTEOmSYzgq8DDmFFD-95">
          <mxGeometry x="-0.2723" y="-1" relative="1" as="geometry">
            <mxPoint x="7" y="-3" as="offset" />
          </mxGeometry>
        </mxCell>
        <mxCell id="X2BhTEOmSYzgq8DDmFFD-76" value="&lt;div align=&quot;left&quot;&gt;considerando il terminale EMITTER comune, si individuano 2 porte:&lt;/div&gt;&lt;div align=&quot;left&quot;&gt;- BASE-EMITTER (BE)&lt;/div&gt;&lt;div align=&quot;left&quot;&gt;- COLLECTOR-EMITTER (CE)&lt;br&gt;&lt;/div&gt;" style="whiteSpace=wrap;html=1;fontSize=11;align=left;fillColor=#f5f5f5;fontColor=#333333;strokeColor=#666666;" vertex="1" parent="1">
          <mxGeometry x="729" y="390" width="180" height="60" as="geometry" />
        </mxCell>
        <mxCell id="X2BhTEOmSYzgq8DDmFFD-85" value="" style="edgeStyle=none;rounded=0;orthogonalLoop=1;jettySize=auto;html=1;fontSize=9;exitX=0.5;exitY=1;exitDx=0;exitDy=0;entryX=0.5;entryY=0;entryDx=0;entryDy=0;" edge="1" source="X2BhTEOmSYzgq8DDmFFD-86" target="X2BhTEOmSYzgq8DDmFFD-87" parent="1">
          <mxGeometry relative="1" as="geometry">
            <mxPoint x="1071.49" y="434" as="sourcePoint" />
            <mxPoint x="1071.49" y="464" as="targetPoint" />
          </mxGeometry>
        </mxCell>
        <mxCell id="X2BhTEOmSYzgq8DDmFFD-86" value="CE" style="whiteSpace=wrap;html=1;fontSize=11;align=center;fillColor=#f8cecc;strokeColor=#b85450;" vertex="1" parent="1">
          <mxGeometry x="990" y="410" width="40" height="20" as="geometry" />
        </mxCell>
        <mxCell id="X2BhTEOmSYzgq8DDmFFD-87" value="&lt;div&gt;variabile dipendente&lt;/div&gt;&lt;div&gt;\(i_C\)&lt;br&gt;&lt;/div&gt;" style="whiteSpace=wrap;html=1;fontSize=11;fillColor=#f8cecc;strokeColor=#b85450;" vertex="1" parent="1">
          <mxGeometry x="960" y="460" width="100" height="40" as="geometry" />
        </mxCell>
        <mxCell id="X2BhTEOmSYzgq8DDmFFD-89" value="" style="edgeStyle=none;rounded=0;orthogonalLoop=1;jettySize=auto;html=1;fontSize=9;entryX=0.5;entryY=0;entryDx=0;entryDy=0;" edge="1" source="X2BhTEOmSYzgq8DDmFFD-90" parent="1" target="X2BhTEOmSYzgq8DDmFFD-91">
          <mxGeometry relative="1" as="geometry">
            <mxPoint x="570" y="464" as="targetPoint" />
          </mxGeometry>
        </mxCell>
        <mxCell id="X2BhTEOmSYzgq8DDmFFD-90" value="BE" style="whiteSpace=wrap;html=1;fontSize=11;align=center;fillColor=#d5e8d4;strokeColor=#82b366;" vertex="1" parent="1">
          <mxGeometry x="600" y="410" width="40" height="20" as="geometry" />
        </mxCell>
        <mxCell id="X2BhTEOmSYzgq8DDmFFD-91" value="&lt;div&gt;variabile indipendente&lt;/div&gt;&lt;div&gt;\(v_{BE}\)&lt;br&gt;&lt;/div&gt;" style="whiteSpace=wrap;html=1;fontSize=11;fillColor=#d5e8d4;strokeColor=#82b366;" vertex="1" parent="1">
          <mxGeometry x="560" y="460" width="120" height="40" as="geometry" />
        </mxCell>
        <mxCell id="X2BhTEOmSYzgq8DDmFFD-98" style="edgeStyle=none;rounded=0;orthogonalLoop=1;jettySize=auto;html=1;entryX=0.5;entryY=0;entryDx=0;entryDy=0;fontSize=10;" edge="1" source="X2BhTEOmSYzgq8DDmFFD-102" target="X2BhTEOmSYzgq8DDmFFD-103" parent="1">
          <mxGeometry relative="1" as="geometry" />
        </mxCell>
        <mxCell id="X2BhTEOmSYzgq8DDmFFD-99" value="alla porta d&#39;ingresso" style="edgeLabel;html=1;align=center;verticalAlign=middle;resizable=0;points=[];fontSize=10;" vertex="1" connectable="0" parent="X2BhTEOmSYzgq8DDmFFD-98">
          <mxGeometry x="0.2302" y="2" relative="1" as="geometry">
            <mxPoint x="8" y="-7" as="offset" />
          </mxGeometry>
        </mxCell>
        <mxCell id="X2BhTEOmSYzgq8DDmFFD-100" style="edgeStyle=none;rounded=0;orthogonalLoop=1;jettySize=auto;html=1;entryX=0.5;entryY=0;entryDx=0;entryDy=0;fontSize=10;" edge="1" source="X2BhTEOmSYzgq8DDmFFD-102" target="X2BhTEOmSYzgq8DDmFFD-104" parent="1">
          <mxGeometry relative="1" as="geometry" />
        </mxCell>
        <mxCell id="X2BhTEOmSYzgq8DDmFFD-101" value="alla porta d&#39;uscita" style="edgeLabel;html=1;align=center;verticalAlign=middle;resizable=0;points=[];fontSize=10;" vertex="1" connectable="0" parent="X2BhTEOmSYzgq8DDmFFD-100">
          <mxGeometry x="-0.0727" y="-1" relative="1" as="geometry">
            <mxPoint x="3" y="6" as="offset" />
          </mxGeometry>
        </mxCell>
        <mxCell id="X2BhTEOmSYzgq8DDmFFD-102" value="&lt;div style=&quot;font-size: 13px;&quot;&gt;&lt;font style=&quot;font-size: 13px;&quot;&gt;CARATTERISTICA STATICA&lt;br&gt;&lt;/font&gt;&lt;/div&gt;" style="whiteSpace=wrap;html=1;fontSize=23;fillColor=#0000CC;fontColor=#FFFFFF;" vertex="1" parent="1">
          <mxGeometry x="740" y="500" width="160" height="40" as="geometry" />
        </mxCell>
        <mxCell id="X2BhTEOmSYzgq8DDmFFD-103" value="$$i_B = i_B(v_{BE},v_{CE}) = I_S(e^{v_{BE}/V_T}-1) \, \text{per $i_B&amp;gt;0$}$$" style="text;whiteSpace=wrap;html=1;fontSize=10;verticalAlign=middle;align=center;labelBorderColor=none;strokeColor=#666666;strokeWidth=1;fillColor=#f5f5f5;fontColor=#333333;" vertex="1" parent="1">
          <mxGeometry x="570" y="620" width="260" height="30" as="geometry" />
        </mxCell>
        <mxCell id="X2BhTEOmSYzgq8DDmFFD-104" value="$$i_C = i_C(v_{BE},v_{CE})$$" style="text;whiteSpace=wrap;html=1;fontSize=10;verticalAlign=middle;align=center;labelBorderColor=none;strokeColor=#666666;strokeWidth=1;fillColor=#f5f5f5;fontColor=#333333;" vertex="1" parent="1">
          <mxGeometry x="860" y="620" width="160" height="30" as="geometry" />
        </mxCell>
        <mxCell id="X2BhTEOmSYzgq8DDmFFD-105" style="edgeStyle=orthogonalEdgeStyle;rounded=0;orthogonalLoop=1;jettySize=auto;html=1;entryX=0;entryY=0.5;entryDx=0;entryDy=0;fontSize=12;fontColor=#000000;endArrow=none;endFill=0;" edge="1" source="X2BhTEOmSYzgq8DDmFFD-107" target="X2BhTEOmSYzgq8DDmFFD-115" parent="1">
          <mxGeometry relative="1" as="geometry">
            <Array as="points">
              <mxPoint x="1460" y="480" />
              <mxPoint x="1210" y="480" />
              <mxPoint x="1210" y="650" />
              <mxPoint x="1230" y="650" />
            </Array>
          </mxGeometry>
        </mxCell>
        <mxCell id="X2BhTEOmSYzgq8DDmFFD-106" style="edgeStyle=orthogonalEdgeStyle;rounded=0;orthogonalLoop=1;jettySize=auto;html=1;entryX=0;entryY=0.5;entryDx=0;entryDy=0;fontSize=12;fontColor=#000000;endArrow=none;endFill=0;" edge="1" source="X2BhTEOmSYzgq8DDmFFD-107" target="X2BhTEOmSYzgq8DDmFFD-111" parent="1">
          <mxGeometry relative="1" as="geometry">
            <Array as="points">
              <mxPoint x="1460" y="480" />
              <mxPoint x="1210" y="480" />
              <mxPoint x="1210" y="530" />
            </Array>
          </mxGeometry>
        </mxCell>
        <mxCell id="X2BhTEOmSYzgq8DDmFFD-107" value="&lt;div style=&quot;font-size: 15px;&quot;&gt;&lt;font style=&quot;font-size: 15px;&quot;&gt;CARATTERISTICHE D&#39;USCITA BJT&lt;br style=&quot;font-size: 15px;&quot;&gt;&lt;/font&gt;&lt;/div&gt;" style="whiteSpace=wrap;html=1;fontSize=15;fillColor=#0000CC;fontColor=#FFFFFF;" vertex="1" parent="1">
          <mxGeometry x="1380" y="410" width="160" height="60" as="geometry" />
        </mxCell>
        <mxCell id="X2BhTEOmSYzgq8DDmFFD-108" value="$$i_C = 0$$" style="whiteSpace=wrap;html=1;strokeColor=#666666;fillColor=#f5f5f5;fontColor=#333333;" vertex="1" parent="1">
          <mxGeometry x="1430" y="510" width="60" height="40" as="geometry" />
        </mxCell>
        <mxCell id="X2BhTEOmSYzgq8DDmFFD-109" value="$$i_C = f(v_{BE},v_{CE})$$" style="whiteSpace=wrap;html=1;strokeColor=#666666;fillColor=#f5f5f5;fontColor=#333333;" vertex="1" parent="1">
          <mxGeometry x="1430" y="630" width="130" height="40" as="geometry" />
        </mxCell>
        <mxCell id="X2BhTEOmSYzgq8DDmFFD-110" style="edgeStyle=orthogonalEdgeStyle;rounded=0;orthogonalLoop=1;jettySize=auto;html=1;fontSize=12;fontColor=#000000;endArrow=block;endFill=1;entryX=0;entryY=0.5;entryDx=0;entryDy=0;" edge="1" source="X2BhTEOmSYzgq8DDmFFD-111" target="X2BhTEOmSYzgq8DDmFFD-108" parent="1">
          <mxGeometry relative="1" as="geometry">
            <mxPoint x="1420" y="530" as="targetPoint" />
          </mxGeometry>
        </mxCell>
        <mxCell id="X2BhTEOmSYzgq8DDmFFD-111" value="&lt;div style=&quot;font-size: 9px;&quot;&gt;REGIONE DI INTERDIZIONE (&lt;b&gt;OFF&lt;/b&gt;):&lt;/div&gt;&lt;div style=&quot;font-size: 9px;&quot;&gt;\( v_{BE} &amp;lt; V_{\gamma} \)&lt;br style=&quot;font-size: 9px;&quot;&gt;&lt;/div&gt;" style="whiteSpace=wrap;html=1;fontSize=9;fillColor=#fff2cc;strokeColor=#d6b656;" vertex="1" parent="1">
          <mxGeometry x="1230" y="510" width="160" height="40" as="geometry" />
        </mxCell>
        <mxCell id="X2BhTEOmSYzgq8DDmFFD-112" style="edgeStyle=orthogonalEdgeStyle;rounded=0;orthogonalLoop=1;jettySize=auto;html=1;fontSize=12;fontColor=#000000;endArrow=block;endFill=1;entryX=0;entryY=0.5;entryDx=0;entryDy=0;" edge="1" source="X2BhTEOmSYzgq8DDmFFD-113" target="X2BhTEOmSYzgq8DDmFFD-124" parent="1">
          <mxGeometry relative="1" as="geometry">
            <mxPoint x="1420" y="650" as="targetPoint" />
          </mxGeometry>
        </mxCell>
        <mxCell id="X2BhTEOmSYzgq8DDmFFD-113" value="&lt;div style=&quot;font-size: 9px;&quot;&gt;REGIONE ATTIVA:&lt;/div&gt;&lt;div style=&quot;font-size: 9px;&quot;&gt;\( v_{BE} \ge V_{\gamma} \wedge v_{CE} &amp;gt; v_{CE,sat} \)&lt;/div&gt;" style="whiteSpace=wrap;html=1;fontSize=9;fillColor=#fff2cc;strokeColor=#d6b656;" vertex="1" parent="1">
          <mxGeometry x="1230" y="570" width="160" height="40" as="geometry" />
        </mxCell>
        <mxCell id="X2BhTEOmSYzgq8DDmFFD-114" style="edgeStyle=orthogonalEdgeStyle;rounded=0;orthogonalLoop=1;jettySize=auto;html=1;fontSize=12;fontColor=#000000;endArrow=block;endFill=1;entryX=0;entryY=0.5;entryDx=0;entryDy=0;" edge="1" source="X2BhTEOmSYzgq8DDmFFD-115" target="X2BhTEOmSYzgq8DDmFFD-109" parent="1">
          <mxGeometry relative="1" as="geometry">
            <mxPoint x="1420" y="590" as="targetPoint" />
          </mxGeometry>
        </mxCell>
        <mxCell id="X2BhTEOmSYzgq8DDmFFD-115" value="&lt;div style=&quot;font-size: 9px;&quot;&gt;REGIONE DI SATURAZIONE (&lt;b&gt;ON&lt;/b&gt;):&lt;/div&gt;&lt;div style=&quot;font-size: 9px;&quot;&gt;\( v_{BE} \ge V_{\gamma} \wedge v_{CE} &amp;lt; v_{CE,sat} \)&lt;/div&gt;" style="whiteSpace=wrap;html=1;fontSize=9;fillColor=#fff2cc;strokeColor=#d6b656;" vertex="1" parent="1">
          <mxGeometry x="1230" y="630" width="160" height="40" as="geometry" />
        </mxCell>
        <mxCell id="X2BhTEOmSYzgq8DDmFFD-119" style="edgeStyle=orthogonalEdgeStyle;rounded=0;orthogonalLoop=1;jettySize=auto;html=1;entryX=0;entryY=0.5;entryDx=0;entryDy=0;fontSize=12;fontColor=#000000;endArrow=none;endFill=0;" edge="1" target="X2BhTEOmSYzgq8DDmFFD-129" parent="1">
          <mxGeometry relative="1" as="geometry">
            <mxPoint x="879.5" y="1420" as="sourcePoint" />
            <Array as="points">
              <mxPoint x="880" y="1430" />
              <mxPoint x="630" y="1430" />
              <mxPoint x="630" y="1480" />
            </Array>
          </mxGeometry>
        </mxCell>
        <mxCell id="X2BhTEOmSYzgq8DDmFFD-120" style="edgeStyle=orthogonalEdgeStyle;rounded=0;orthogonalLoop=1;jettySize=auto;html=1;entryX=0;entryY=0.5;entryDx=0;entryDy=0;fontSize=12;fontColor=#000000;endArrow=none;endFill=0;" edge="1" target="X2BhTEOmSYzgq8DDmFFD-133" parent="1">
          <mxGeometry relative="1" as="geometry">
            <mxPoint x="879.5" y="1420" as="sourcePoint" />
            <Array as="points">
              <mxPoint x="880" y="1430" />
              <mxPoint x="630" y="1430" />
              <mxPoint x="630" y="1540" />
            </Array>
          </mxGeometry>
        </mxCell>
        <mxCell id="X2BhTEOmSYzgq8DDmFFD-124" value="$$i_C = \beta I_S(e^{v_{BE}/V_T} - 1) \Big(1+\frac{v_{CE}}{V_A} \Big)$$" style="text;whiteSpace=wrap;html=1;fontSize=12;fontColor=#333333;verticalAlign=middle;align=center;fillColor=#f5f5f5;strokeColor=#666666;" vertex="1" parent="1">
          <mxGeometry x="1430" y="570" width="230" height="40" as="geometry" />
        </mxCell>
        <mxCell id="X2BhTEOmSYzgq8DDmFFD-125" style="edgeStyle=orthogonalEdgeStyle;rounded=0;orthogonalLoop=1;jettySize=auto;html=1;entryX=0;entryY=0.5;entryDx=0;entryDy=0;fontSize=12;fontColor=#000000;endArrow=none;endFill=0;" edge="1" target="X2BhTEOmSYzgq8DDmFFD-113" parent="1">
          <mxGeometry relative="1" as="geometry">
            <mxPoint x="1469.7416279069766" y="469.99" as="sourcePoint" />
            <mxPoint x="1210.23" y="589.99" as="targetPoint" />
            <Array as="points">
              <mxPoint x="1460" y="470" />
              <mxPoint x="1460" y="480" />
              <mxPoint x="1210" y="480" />
              <mxPoint x="1210" y="590" />
            </Array>
          </mxGeometry>
        </mxCell>
        <mxCell id="X2BhTEOmSYzgq8DDmFFD-152" style="edgeStyle=orthogonalEdgeStyle;rounded=0;orthogonalLoop=1;jettySize=auto;html=1;entryX=0.5;entryY=0;entryDx=0;entryDy=0;fontSize=12;endArrow=none;endFill=0;" edge="1" parent="1" source="X2BhTEOmSYzgq8DDmFFD-136" target="X2BhTEOmSYzgq8DDmFFD-137">
          <mxGeometry relative="1" as="geometry" />
        </mxCell>
        <mxCell id="X2BhTEOmSYzgq8DDmFFD-153" style="edgeStyle=orthogonalEdgeStyle;rounded=0;orthogonalLoop=1;jettySize=auto;html=1;entryX=0.5;entryY=0;entryDx=0;entryDy=0;fontSize=12;endArrow=none;endFill=0;" edge="1" parent="1" source="X2BhTEOmSYzgq8DDmFFD-136" target="X2BhTEOmSYzgq8DDmFFD-138">
          <mxGeometry relative="1" as="geometry" />
        </mxCell>
        <mxCell id="X2BhTEOmSYzgq8DDmFFD-136" value="APPLICAZIONI TRANSISTORI MOS" style="whiteSpace=wrap;html=1;fontSize=15;fillColor=#0000CC;fontColor=#FFFFFF;" vertex="1" parent="1">
          <mxGeometry x="1900" y="380" width="160" height="60" as="geometry" />
        </mxCell>
        <mxCell id="X2BhTEOmSYzgq8DDmFFD-144" value="" style="edgeStyle=orthogonalEdgeStyle;rounded=0;orthogonalLoop=1;jettySize=auto;html=1;" edge="1" parent="1" source="X2BhTEOmSYzgq8DDmFFD-137" target="X2BhTEOmSYzgq8DDmFFD-143">
          <mxGeometry relative="1" as="geometry" />
        </mxCell>
        <mxCell id="X2BhTEOmSYzgq8DDmFFD-137" value="ANALOGICHE" style="whiteSpace=wrap;html=1;fillColor=#66FF66;" vertex="1" parent="1">
          <mxGeometry x="1810" y="480" width="100" height="30" as="geometry" />
        </mxCell>
        <mxCell id="X2BhTEOmSYzgq8DDmFFD-148" value="" style="edgeStyle=orthogonalEdgeStyle;rounded=0;orthogonalLoop=1;jettySize=auto;html=1;fontSize=12;entryX=0.5;entryY=0;entryDx=0;entryDy=0;" edge="1" parent="1" source="X2BhTEOmSYzgq8DDmFFD-138" target="X2BhTEOmSYzgq8DDmFFD-149">
          <mxGeometry relative="1" as="geometry" />
        </mxCell>
        <mxCell id="X2BhTEOmSYzgq8DDmFFD-138" value="DIGITALI" style="whiteSpace=wrap;html=1;fillColor=#66FF66;" vertex="1" parent="1">
          <mxGeometry x="2050" y="480" width="100" height="30" as="geometry" />
        </mxCell>
        <mxCell id="X2BhTEOmSYzgq8DDmFFD-146" value="" style="edgeStyle=orthogonalEdgeStyle;rounded=0;orthogonalLoop=1;jettySize=auto;html=1;" edge="1" parent="1" source="X2BhTEOmSYzgq8DDmFFD-143" target="X2BhTEOmSYzgq8DDmFFD-145">
          <mxGeometry relative="1" as="geometry" />
        </mxCell>
        <mxCell id="X2BhTEOmSYzgq8DDmFFD-143" value="&lt;font style=&quot;font-size: 12px;&quot;&gt;il transistore MOS si comporta da blocco funzionale analogico solo in &lt;b&gt;regione di saturazione&lt;/b&gt;&lt;/font&gt;" style="whiteSpace=wrap;html=1;fillColor=#f5f5f5;fontColor=#333333;strokeColor=#666666;" vertex="1" parent="1">
          <mxGeometry x="1770" y="530" width="180" height="70" as="geometry" />
        </mxCell>
        <mxCell id="X2BhTEOmSYzgq8DDmFFD-145" value="può essere utilizzato come &lt;b&gt;AMPLIFICATORE&lt;/b&gt;" style="whiteSpace=wrap;html=1;fillColor=#f5f5f5;strokeColor=#666666;fontColor=#333333;" vertex="1" parent="1">
          <mxGeometry x="1800" y="620" width="120" height="60" as="geometry" />
        </mxCell>
        <mxCell id="X2BhTEOmSYzgq8DDmFFD-161" style="edgeStyle=orthogonalEdgeStyle;rounded=0;orthogonalLoop=1;jettySize=auto;html=1;entryX=0.5;entryY=0;entryDx=0;entryDy=0;fontSize=12;endArrow=none;endFill=0;" edge="1" parent="1" source="X2BhTEOmSYzgq8DDmFFD-147" target="X2BhTEOmSYzgq8DDmFFD-154">
          <mxGeometry relative="1" as="geometry" />
        </mxCell>
        <mxCell id="X2BhTEOmSYzgq8DDmFFD-162" style="edgeStyle=orthogonalEdgeStyle;rounded=0;orthogonalLoop=1;jettySize=auto;html=1;entryX=0.5;entryY=0;entryDx=0;entryDy=0;fontSize=12;endArrow=none;endFill=0;" edge="1" parent="1" source="X2BhTEOmSYzgq8DDmFFD-147" target="X2BhTEOmSYzgq8DDmFFD-155">
          <mxGeometry relative="1" as="geometry" />
        </mxCell>
        <mxCell id="X2BhTEOmSYzgq8DDmFFD-147" value="può essere utilizzato come &lt;b&gt;INTERRUTTORE CONTROLLATO DA \(v_G\)&lt;/b&gt;" style="whiteSpace=wrap;html=1;fillColor=#f5f5f5;fontColor=#333333;strokeColor=#666666;" vertex="1" parent="1">
          <mxGeometry x="2030" y="620" width="140" height="60" as="geometry" />
        </mxCell>
        <mxCell id="X2BhTEOmSYzgq8DDmFFD-151" style="edgeStyle=orthogonalEdgeStyle;rounded=0;orthogonalLoop=1;jettySize=auto;html=1;entryX=0.5;entryY=0;entryDx=0;entryDy=0;fontSize=12;" edge="1" parent="1" source="X2BhTEOmSYzgq8DDmFFD-149" target="X2BhTEOmSYzgq8DDmFFD-147">
          <mxGeometry relative="1" as="geometry" />
        </mxCell>
        <mxCell id="X2BhTEOmSYzgq8DDmFFD-149" value="&lt;div align=&quot;left&quot;&gt;\(v_G\) può assumere due valori:&lt;/div&gt;&lt;div align=&quot;left&quot;&gt;- ALTO (\(v_G=V_{DD}\))&lt;/div&gt;&lt;div align=&quot;left&quot;&gt;- BASSO (\(v_G=0\))&lt;/div&gt;&lt;div align=&quot;left&quot;&gt;solo in &lt;b&gt;regioni ON e OFF&lt;/b&gt;&lt;br&gt;&lt;/div&gt;" style="whiteSpace=wrap;html=1;fontSize=12;fillColor=#f5f5f5;fontColor=#333333;strokeColor=#666666;align=left;" vertex="1" parent="1">
          <mxGeometry x="2010" y="530" width="180" height="70" as="geometry" />
        </mxCell>
        <mxCell id="X2BhTEOmSYzgq8DDmFFD-166" style="edgeStyle=orthogonalEdgeStyle;rounded=0;orthogonalLoop=1;jettySize=auto;html=1;entryX=0;entryY=0.5;entryDx=0;entryDy=0;fontSize=12;endArrow=block;endFill=1;" edge="1" parent="1" source="X2BhTEOmSYzgq8DDmFFD-154" target="X2BhTEOmSYzgq8DDmFFD-163">
          <mxGeometry relative="1" as="geometry">
            <Array as="points">
              <mxPoint x="1980" y="765" />
            </Array>
          </mxGeometry>
        </mxCell>
        <mxCell id="X2BhTEOmSYzgq8DDmFFD-168" value="ON" style="edgeLabel;html=1;align=center;verticalAlign=middle;resizable=0;points=[];fontSize=12;" vertex="1" connectable="0" parent="X2BhTEOmSYzgq8DDmFFD-166">
          <mxGeometry x="0.1794" y="2" relative="1" as="geometry">
            <mxPoint x="2" y="1" as="offset" />
          </mxGeometry>
        </mxCell>
        <mxCell id="X2BhTEOmSYzgq8DDmFFD-167" style="edgeStyle=orthogonalEdgeStyle;rounded=0;orthogonalLoop=1;jettySize=auto;html=1;entryX=0;entryY=0.5;entryDx=0;entryDy=0;fontSize=12;endArrow=block;endFill=1;" edge="1" parent="1" source="X2BhTEOmSYzgq8DDmFFD-154" target="X2BhTEOmSYzgq8DDmFFD-164">
          <mxGeometry relative="1" as="geometry">
            <Array as="points">
              <mxPoint x="1980" y="795" />
            </Array>
          </mxGeometry>
        </mxCell>
        <mxCell id="X2BhTEOmSYzgq8DDmFFD-169" value="OFF" style="edgeLabel;html=1;align=center;verticalAlign=middle;resizable=0;points=[];fontSize=12;" vertex="1" connectable="0" parent="X2BhTEOmSYzgq8DDmFFD-167">
          <mxGeometry x="0.3938" y="1" relative="1" as="geometry">
            <mxPoint x="4" as="offset" />
          </mxGeometry>
        </mxCell>
        <mxCell id="X2BhTEOmSYzgq8DDmFFD-154" value="nMOS" style="whiteSpace=wrap;html=1;fontSize=12;fillColor=#66FF66;" vertex="1" parent="1">
          <mxGeometry x="1970" y="720" width="60" height="20" as="geometry" />
        </mxCell>
        <mxCell id="X2BhTEOmSYzgq8DDmFFD-183" style="edgeStyle=orthogonalEdgeStyle;rounded=0;orthogonalLoop=1;jettySize=auto;html=1;entryX=0;entryY=0.5;entryDx=0;entryDy=0;fontSize=12;endArrow=block;endFill=1;" edge="1" parent="1" source="X2BhTEOmSYzgq8DDmFFD-155" target="X2BhTEOmSYzgq8DDmFFD-182">
          <mxGeometry relative="1" as="geometry">
            <Array as="points">
              <mxPoint x="2180" y="765" />
              <mxPoint x="2220" y="765" />
            </Array>
          </mxGeometry>
        </mxCell>
        <mxCell id="X2BhTEOmSYzgq8DDmFFD-185" value="ON" style="edgeLabel;html=1;align=center;verticalAlign=middle;resizable=0;points=[];fontSize=12;" vertex="1" connectable="0" parent="X2BhTEOmSYzgq8DDmFFD-183">
          <mxGeometry x="0.2021" relative="1" as="geometry">
            <mxPoint x="2" y="-1" as="offset" />
          </mxGeometry>
        </mxCell>
        <mxCell id="X2BhTEOmSYzgq8DDmFFD-184" style="edgeStyle=orthogonalEdgeStyle;rounded=0;orthogonalLoop=1;jettySize=auto;html=1;entryX=0;entryY=0.5;entryDx=0;entryDy=0;fontSize=12;endArrow=block;endFill=1;" edge="1" parent="1" source="X2BhTEOmSYzgq8DDmFFD-155" target="X2BhTEOmSYzgq8DDmFFD-181">
          <mxGeometry relative="1" as="geometry">
            <Array as="points">
              <mxPoint x="2180" y="795" />
              <mxPoint x="2220" y="795" />
            </Array>
          </mxGeometry>
        </mxCell>
        <mxCell id="X2BhTEOmSYzgq8DDmFFD-186" value="OFF" style="edgeLabel;html=1;align=center;verticalAlign=middle;resizable=0;points=[];fontSize=12;" vertex="1" connectable="0" parent="X2BhTEOmSYzgq8DDmFFD-184">
          <mxGeometry x="0.4722" relative="1" as="geometry">
            <mxPoint as="offset" />
          </mxGeometry>
        </mxCell>
        <mxCell id="X2BhTEOmSYzgq8DDmFFD-155" value="pMOS" style="whiteSpace=wrap;html=1;fontSize=12;fillColor=#66FF66;" vertex="1" parent="1">
          <mxGeometry x="2170" y="720" width="60" height="20" as="geometry" />
        </mxCell>
        <mxCell id="X2BhTEOmSYzgq8DDmFFD-163" value="$$v_G = V_{DD}$$" style="text;whiteSpace=wrap;html=1;fontSize=12;verticalAlign=middle;align=center;" vertex="1" parent="1">
          <mxGeometry x="2020" y="750" width="80" height="30" as="geometry" />
        </mxCell>
        <mxCell id="X2BhTEOmSYzgq8DDmFFD-164" value="$$v_G = 0$$" style="text;whiteSpace=wrap;html=1;fontSize=12;verticalAlign=middle;align=center;" vertex="1" parent="1">
          <mxGeometry x="2020" y="780" width="60" height="30" as="geometry" />
        </mxCell>
        <mxCell id="X2BhTEOmSYzgq8DDmFFD-181" value="$$v_G = V_{DD}$$" style="text;whiteSpace=wrap;html=1;fontSize=12;verticalAlign=middle;align=center;" vertex="1" parent="1">
          <mxGeometry x="2220" y="780" width="80" height="30" as="geometry" />
        </mxCell>
        <mxCell id="X2BhTEOmSYzgq8DDmFFD-182" value="$$v_G = 0$$" style="text;whiteSpace=wrap;html=1;fontSize=12;verticalAlign=middle;align=center;" vertex="1" parent="1">
          <mxGeometry x="2220" y="750" width="60" height="30" as="geometry" />
        </mxCell>
        <mxCell id="X2BhTEOmSYzgq8DDmFFD-191" style="edgeStyle=none;rounded=0;orthogonalLoop=1;jettySize=auto;html=1;entryX=1;entryY=0.5;entryDx=0;entryDy=0;fontSize=12;endArrow=block;endFill=1;exitX=0;exitY=0.5;exitDx=0;exitDy=0;" edge="1" parent="1" source="X2BhTEOmSYzgq8DDmFFD-188" target="X2BhTEOmSYzgq8DDmFFD-190">
          <mxGeometry relative="1" as="geometry" />
        </mxCell>
        <mxCell id="X2BhTEOmSYzgq8DDmFFD-193" value="" style="edgeStyle=none;rounded=0;orthogonalLoop=1;jettySize=auto;html=1;fontSize=12;endArrow=block;endFill=1;" edge="1" parent="1" source="X2BhTEOmSYzgq8DDmFFD-188" target="X2BhTEOmSYzgq8DDmFFD-192">
          <mxGeometry relative="1" as="geometry" />
        </mxCell>
        <mxCell id="X2BhTEOmSYzgq8DDmFFD-188" value="&lt;div&gt;LINEARIZZAZIONE E PICCOLO SEGNALE&lt;/div&gt;&lt;div&gt;MOS&lt;br&gt;&lt;/div&gt;" style="whiteSpace=wrap;html=1;fontSize=15;fillColor=#0000CC;fontColor=#FFFFFF;" vertex="1" parent="1">
          <mxGeometry x="280" y="850" width="160" height="60" as="geometry" />
        </mxCell>
        <mxCell id="X2BhTEOmSYzgq8DDmFFD-190" value="&lt;div&gt;il transistore MOS è un dispositivo non-lineare come il diodo. Si può linearizzare nell&#39;intorno di un punto di lavoro separando componenti di &lt;b&gt;polarizzazione &lt;/b&gt;e di &lt;b&gt;piccolo segnale&lt;/b&gt;&lt;br&gt;&lt;/div&gt;" style="whiteSpace=wrap;html=1;fontSize=12;fillColor=#f5f5f5;fontColor=#333333;strokeColor=#666666;" vertex="1" parent="1">
          <mxGeometry x="10" y="900" width="210" height="90" as="geometry" />
        </mxCell>
        <mxCell id="X2BhTEOmSYzgq8DDmFFD-199" style="edgeStyle=orthogonalEdgeStyle;rounded=0;orthogonalLoop=1;jettySize=auto;html=1;entryX=1;entryY=0.5;entryDx=0;entryDy=0;fontSize=12;endArrow=block;endFill=1;" edge="1" parent="1" source="X2BhTEOmSYzgq8DDmFFD-192" target="X2BhTEOmSYzgq8DDmFFD-195">
          <mxGeometry relative="1" as="geometry">
            <Array as="points">
              <mxPoint x="320" y="1080" />
            </Array>
          </mxGeometry>
        </mxCell>
        <mxCell id="X2BhTEOmSYzgq8DDmFFD-200" style="edgeStyle=orthogonalEdgeStyle;rounded=0;orthogonalLoop=1;jettySize=auto;html=1;entryX=1;entryY=0.5;entryDx=0;entryDy=0;fontSize=12;endArrow=block;endFill=1;" edge="1" parent="1" source="X2BhTEOmSYzgq8DDmFFD-192" target="X2BhTEOmSYzgq8DDmFFD-196">
          <mxGeometry relative="1" as="geometry">
            <Array as="points">
              <mxPoint x="320" y="1140" />
            </Array>
          </mxGeometry>
        </mxCell>
        <mxCell id="X2BhTEOmSYzgq8DDmFFD-201" value="&lt;div&gt;porta&lt;/div&gt;&lt;div&gt;ingresso&lt;/div&gt;" style="edgeLabel;html=1;align=center;verticalAlign=middle;resizable=0;points=[];fontSize=12;" vertex="1" connectable="0" parent="X2BhTEOmSYzgq8DDmFFD-200">
          <mxGeometry x="-0.769" relative="1" as="geometry">
            <mxPoint y="1" as="offset" />
          </mxGeometry>
        </mxCell>
        <mxCell id="X2BhTEOmSYzgq8DDmFFD-202" style="edgeStyle=orthogonalEdgeStyle;rounded=0;orthogonalLoop=1;jettySize=auto;html=1;entryX=0;entryY=0.5;entryDx=0;entryDy=0;fontSize=12;endArrow=block;endFill=1;" edge="1" parent="1" source="X2BhTEOmSYzgq8DDmFFD-192" target="X2BhTEOmSYzgq8DDmFFD-197">
          <mxGeometry relative="1" as="geometry">
            <Array as="points">
              <mxPoint x="400" y="1080" />
            </Array>
          </mxGeometry>
        </mxCell>
        <mxCell id="X2BhTEOmSYzgq8DDmFFD-203" style="edgeStyle=orthogonalEdgeStyle;rounded=0;orthogonalLoop=1;jettySize=auto;html=1;entryX=0;entryY=0.5;entryDx=0;entryDy=0;fontSize=12;endArrow=block;endFill=1;" edge="1" parent="1" source="X2BhTEOmSYzgq8DDmFFD-192" target="X2BhTEOmSYzgq8DDmFFD-198">
          <mxGeometry relative="1" as="geometry">
            <Array as="points">
              <mxPoint x="400" y="1140" />
            </Array>
          </mxGeometry>
        </mxCell>
        <mxCell id="X2BhTEOmSYzgq8DDmFFD-204" value="&lt;div&gt;porta&lt;/div&gt;&lt;div&gt;uscita&lt;/div&gt;" style="edgeLabel;html=1;align=center;verticalAlign=middle;resizable=0;points=[];fontSize=12;" vertex="1" connectable="0" parent="X2BhTEOmSYzgq8DDmFFD-203">
          <mxGeometry x="-0.7456" y="-2" relative="1" as="geometry">
            <mxPoint x="2" y="-1" as="offset" />
          </mxGeometry>
        </mxCell>
        <mxCell id="X2BhTEOmSYzgq8DDmFFD-192" value="&lt;font style=&quot;font-size: 13px;&quot;&gt;in quanto dispositivo a 2 porte, ha 4 variabili&lt;/font&gt;" style="whiteSpace=wrap;html=1;fontSize=15;fillColor=#66FF66;strokeColor=#82b366;" vertex="1" parent="1">
          <mxGeometry x="290" y="970" width="140" height="50" as="geometry" />
        </mxCell>
        <mxCell id="X2BhTEOmSYzgq8DDmFFD-195" value="$$i_G = I_G + i_g = 0$$" style="whiteSpace=wrap;html=1;fontSize=12;fillColor=#d5e8d4;strokeColor=#82b366;" vertex="1" parent="1">
          <mxGeometry x="160" y="1060" width="120" height="40" as="geometry" />
        </mxCell>
        <mxCell id="X2BhTEOmSYzgq8DDmFFD-196" value="$$v_{GS} = V_{GS} + v_{gs}$$" style="whiteSpace=wrap;html=1;fontSize=12;fillColor=#d5e8d4;strokeColor=#82b366;" vertex="1" parent="1">
          <mxGeometry x="160" y="1120" width="120" height="40" as="geometry" />
        </mxCell>
        <mxCell id="X2BhTEOmSYzgq8DDmFFD-207" style="edgeStyle=orthogonalEdgeStyle;rounded=0;orthogonalLoop=1;jettySize=auto;html=1;entryX=0;entryY=0.5;entryDx=0;entryDy=0;fontSize=12;endArrow=none;endFill=0;" edge="1" parent="1" source="X2BhTEOmSYzgq8DDmFFD-197" target="X2BhTEOmSYzgq8DDmFFD-205">
          <mxGeometry relative="1" as="geometry" />
        </mxCell>
        <mxCell id="X2BhTEOmSYzgq8DDmFFD-197" value="$$i_D = I_D + i_d$$" style="whiteSpace=wrap;html=1;fontSize=12;fillColor=#f8cecc;strokeColor=#b85450;" vertex="1" parent="1">
          <mxGeometry x="440" y="1060" width="120" height="40" as="geometry" />
        </mxCell>
        <mxCell id="X2BhTEOmSYzgq8DDmFFD-198" value="$$v_{DS} = V_{DS} + v_{ds}$$" style="whiteSpace=wrap;html=1;fontSize=12;fillColor=#f8cecc;strokeColor=#b85450;" vertex="1" parent="1">
          <mxGeometry x="440" y="1120" width="120" height="40" as="geometry" />
        </mxCell>
        <mxCell id="X2BhTEOmSYzgq8DDmFFD-210" style="edgeStyle=orthogonalEdgeStyle;rounded=0;orthogonalLoop=1;jettySize=auto;html=1;entryX=0;entryY=0.5;entryDx=0;entryDy=0;fontSize=11;endArrow=block;endFill=1;" edge="1" parent="1" source="X2BhTEOmSYzgq8DDmFFD-205" target="X2BhTEOmSYzgq8DDmFFD-208">
          <mxGeometry relative="1" as="geometry" />
        </mxCell>
        <mxCell id="X2BhTEOmSYzgq8DDmFFD-205" value="&lt;font style=&quot;font-size: 11px;&quot;&gt;in &lt;b&gt;regione di saturazione&lt;/b&gt;&lt;/font&gt;" style="whiteSpace=wrap;html=1;fontSize=12;fillColor=#66FF66;" vertex="1" parent="1">
          <mxGeometry x="600" y="890" width="160" height="20" as="geometry" />
        </mxCell>
        <mxCell id="X2BhTEOmSYzgq8DDmFFD-208" value="$$i_D = \frac{\beta}{2} (v_{GS}-V_{TH})^2 (1 + \lambda v_{DS})$$" style="whiteSpace=wrap;html=1;fontSize=12;fillColor=#f8cecc;strokeColor=#b85450;" vertex="1" parent="1">
          <mxGeometry x="820" y="880" width="220" height="40" as="geometry" />
        </mxCell>
        <mxCell id="X2BhTEOmSYzgq8DDmFFD-215" value="" style="edgeStyle=orthogonalEdgeStyle;rounded=0;orthogonalLoop=1;jettySize=auto;html=1;fontSize=11;endArrow=block;endFill=1;" edge="1" parent="1" source="X2BhTEOmSYzgq8DDmFFD-211" target="X2BhTEOmSYzgq8DDmFFD-214">
          <mxGeometry relative="1" as="geometry" />
        </mxCell>
        <mxCell id="X2BhTEOmSYzgq8DDmFFD-211" value="&lt;font style=&quot;font-size: 12px;&quot;&gt;LINEARIZZANDO IN UN PUNTO DI LAVORO \(Q=(V_{GS},V_{DS})\)&lt;/font&gt;" style="whiteSpace=wrap;html=1;fontSize=15;fillColor=#0066CC;strokeColor=default;fontColor=#FFFFFF;" vertex="1" parent="1">
          <mxGeometry x="820" y="970" width="200" height="40" as="geometry" />
        </mxCell>
        <mxCell id="X2BhTEOmSYzgq8DDmFFD-218" style="edgeStyle=orthogonalEdgeStyle;rounded=0;orthogonalLoop=1;jettySize=auto;html=1;entryX=0.5;entryY=0;entryDx=0;entryDy=0;fontSize=11;endArrow=none;endFill=0;" edge="1" parent="1" source="X2BhTEOmSYzgq8DDmFFD-214" target="X2BhTEOmSYzgq8DDmFFD-216">
          <mxGeometry relative="1" as="geometry" />
        </mxCell>
        <mxCell id="X2BhTEOmSYzgq8DDmFFD-219" style="edgeStyle=orthogonalEdgeStyle;rounded=0;orthogonalLoop=1;jettySize=auto;html=1;entryX=0.5;entryY=0;entryDx=0;entryDy=0;fontSize=11;endArrow=none;endFill=0;" edge="1" parent="1" source="X2BhTEOmSYzgq8DDmFFD-214" target="X2BhTEOmSYzgq8DDmFFD-217">
          <mxGeometry relative="1" as="geometry" />
        </mxCell>
        <mxCell id="X2BhTEOmSYzgq8DDmFFD-251" style="edgeStyle=orthogonalEdgeStyle;rounded=0;orthogonalLoop=1;jettySize=auto;html=1;entryX=0.5;entryY=0;entryDx=0;entryDy=0;fontSize=12;endArrow=none;endFill=0;" edge="1" parent="1" source="X2BhTEOmSYzgq8DDmFFD-214" target="X2BhTEOmSYzgq8DDmFFD-250">
          <mxGeometry relative="1" as="geometry">
            <Array as="points">
              <mxPoint x="920" y="1160" />
              <mxPoint x="920" y="1160" />
            </Array>
          </mxGeometry>
        </mxCell>
        <mxCell id="X2BhTEOmSYzgq8DDmFFD-214" value="$$i_g = 0 \\ i_d = g_m v_{gs} + g_o v_{ds} $$" style="whiteSpace=wrap;html=1;fontSize=11;fillColor=#e1d5e7;strokeColor=#9673a6;" vertex="1" parent="1">
          <mxGeometry x="840" y="1030" width="160" height="50" as="geometry" />
        </mxCell>
        <mxCell id="X2BhTEOmSYzgq8DDmFFD-216" value="$$g_m = \frac{2I_D}{V_{GS} - V_{TH}} \cong \sqrt{2 I_D \beta}$$" style="whiteSpace=wrap;html=1;fontSize=11;fillColor=#dae8fc;strokeColor=#6c8ebf;" vertex="1" parent="1">
          <mxGeometry x="690" y="1120" width="180" height="40" as="geometry" />
        </mxCell>
        <mxCell id="X2BhTEOmSYzgq8DDmFFD-217" value="$$g_o \cong \lambda I_D$$" style="whiteSpace=wrap;html=1;fontSize=11;fillColor=#dae8fc;strokeColor=#6c8ebf;" vertex="1" parent="1">
          <mxGeometry x="970" y="1120" width="180" height="40" as="geometry" />
        </mxCell>
        <mxCell id="X2BhTEOmSYzgq8DDmFFD-231" style="edgeStyle=orthogonalEdgeStyle;rounded=0;orthogonalLoop=1;jettySize=auto;html=1;entryX=0.5;entryY=0;entryDx=0;entryDy=0;fontSize=12;endArrow=none;endFill=0;" edge="1" parent="1" source="X2BhTEOmSYzgq8DDmFFD-226" target="X2BhTEOmSYzgq8DDmFFD-227">
          <mxGeometry relative="1" as="geometry">
            <Array as="points">
              <mxPoint x="800" y="1330" />
              <mxPoint x="600" y="1330" />
            </Array>
          </mxGeometry>
        </mxCell>
        <mxCell id="X2BhTEOmSYzgq8DDmFFD-232" style="edgeStyle=orthogonalEdgeStyle;rounded=0;orthogonalLoop=1;jettySize=auto;html=1;entryX=0.5;entryY=0;entryDx=0;entryDy=0;fontSize=12;endArrow=none;endFill=0;" edge="1" parent="1" source="X2BhTEOmSYzgq8DDmFFD-226" target="X2BhTEOmSYzgq8DDmFFD-230">
          <mxGeometry relative="1" as="geometry" />
        </mxCell>
        <mxCell id="X2BhTEOmSYzgq8DDmFFD-233" style="edgeStyle=orthogonalEdgeStyle;rounded=0;orthogonalLoop=1;jettySize=auto;html=1;entryX=0.5;entryY=0;entryDx=0;entryDy=0;fontSize=12;endArrow=none;endFill=0;" edge="1" parent="1" source="X2BhTEOmSYzgq8DDmFFD-226" target="X2BhTEOmSYzgq8DDmFFD-229">
          <mxGeometry relative="1" as="geometry">
            <Array as="points">
              <mxPoint x="800" y="1330" />
              <mxPoint x="1000" y="1330" />
            </Array>
          </mxGeometry>
        </mxCell>
        <mxCell id="X2BhTEOmSYzgq8DDmFFD-226" value="&lt;div&gt;CIRCUITI EQUIVALENTI&lt;/div&gt;&lt;div&gt;PICCOLO SEGNALE&lt;br&gt;&lt;/div&gt;" style="whiteSpace=wrap;html=1;fontSize=15;fillColor=#0000CC;fontColor=#FFFFFF;" vertex="1" parent="1">
          <mxGeometry x="710" y="1250" width="180" height="60" as="geometry" />
        </mxCell>
        <mxCell id="X2BhTEOmSYzgq8DDmFFD-227" value="nMOS" style="whiteSpace=wrap;html=1;fontSize=15;fillColor=#66FF66;strokeColor=#2D7600;fontColor=#000000;" vertex="1" parent="1">
          <mxGeometry x="560" y="1350" width="80" height="30" as="geometry" />
        </mxCell>
        <mxCell id="X2BhTEOmSYzgq8DDmFFD-229" value="BJT" style="whiteSpace=wrap;html=1;fontSize=15;fillColor=#66FF66;strokeColor=#2D7600;fontColor=#000000;" vertex="1" parent="1">
          <mxGeometry x="960" y="1350" width="80" height="30" as="geometry" />
        </mxCell>
        <mxCell id="X2BhTEOmSYzgq8DDmFFD-230" value="pMOS" style="whiteSpace=wrap;html=1;fontSize=15;fillColor=#66FF66;strokeColor=#2D7600;fontColor=#000000;" vertex="1" parent="1">
          <mxGeometry x="760" y="1350" width="80" height="30" as="geometry" />
        </mxCell>
        <mxCell id="X2BhTEOmSYzgq8DDmFFD-234" value="" style="shape=image;imageAspect=0;aspect=fixed;verticalLabelPosition=bottom;verticalAlign=top;fontSize=12;fillColor=#0066CC;image=https://raw.githubusercontent.com/BCPTe/SETM/main/images/05/nmos_equiv.png;" vertex="1" parent="1">
          <mxGeometry x="520" y="1382" width="160" height="79.84" as="geometry" />
        </mxCell>
        <mxCell id="X2BhTEOmSYzgq8DDmFFD-235" value="" style="shape=image;imageAspect=0;aspect=fixed;verticalLabelPosition=bottom;verticalAlign=top;fontSize=12;fillColor=#0066CC;image=https://raw.githubusercontent.com/BCPTe/SETM/main/images/05/pmos_equiv.png;" vertex="1" parent="1">
          <mxGeometry x="720" y="1382" width="160" height="80" as="geometry" />
        </mxCell>
        <mxCell id="X2BhTEOmSYzgq8DDmFFD-236" value="" style="shape=image;imageAspect=0;aspect=fixed;verticalLabelPosition=bottom;verticalAlign=top;fontSize=12;fillColor=#0066CC;image=https://raw.githubusercontent.com/BCPTe/SETM/main/images/05/bjt_equiv.png;" vertex="1" parent="1">
          <mxGeometry x="910" y="1402" width="180" height="81.82" as="geometry" />
        </mxCell>
        <mxCell id="X2BhTEOmSYzgq8DDmFFD-239" style="rounded=0;orthogonalLoop=1;jettySize=auto;html=1;entryX=1;entryY=0.5;entryDx=0;entryDy=0;fontSize=12;endArrow=block;endFill=1;exitX=0;exitY=0.5;exitDx=0;exitDy=0;" edge="1" parent="1" source="X2BhTEOmSYzgq8DDmFFD-237" target="X2BhTEOmSYzgq8DDmFFD-238">
          <mxGeometry relative="1" as="geometry" />
        </mxCell>
        <mxCell id="X2BhTEOmSYzgq8DDmFFD-237" value="&lt;div&gt;LINEARIZZAZIONE E PICCOLO SEGNALE&lt;/div&gt;&lt;div&gt;BJT&lt;br&gt;&lt;/div&gt;" style="whiteSpace=wrap;html=1;fontSize=15;fillColor=#0000CC;fontColor=#FFFFFF;" vertex="1" parent="1">
          <mxGeometry x="280" y="1210" width="160" height="60" as="geometry" />
        </mxCell>
        <mxCell id="X2BhTEOmSYzgq8DDmFFD-243" value="" style="edgeStyle=none;rounded=0;orthogonalLoop=1;jettySize=auto;html=1;fontSize=12;endArrow=none;endFill=0;" edge="1" parent="1" source="X2BhTEOmSYzgq8DDmFFD-238" target="X2BhTEOmSYzgq8DDmFFD-242">
          <mxGeometry relative="1" as="geometry" />
        </mxCell>
        <mxCell id="X2BhTEOmSYzgq8DDmFFD-238" value="anche per il transistore BJT si può analogamente ricavare un circuito equivalente per il piccolo segnale" style="whiteSpace=wrap;html=1;fontSize=12;fillColor=#f5f5f5;fontColor=#333333;strokeColor=#666666;" vertex="1" parent="1">
          <mxGeometry x="10" y="1290" width="220" height="60" as="geometry" />
        </mxCell>
        <mxCell id="X2BhTEOmSYzgq8DDmFFD-242" value="in &lt;b&gt;regione attiva&lt;/b&gt;" style="whiteSpace=wrap;html=1;fillColor=#66FF66;strokeColor=default;fontColor=default;fontSize=12;" vertex="1" parent="1">
          <mxGeometry x="60" y="1360" width="120" height="20" as="geometry" />
        </mxCell>
        <mxCell id="X2BhTEOmSYzgq8DDmFFD-244" value="$$g_\pi = \frac{I_B}{V_T}$$" style="whiteSpace=wrap;html=1;fontSize=11;fillColor=#dae8fc;strokeColor=#6c8ebf;" vertex="1" parent="1">
          <mxGeometry x="360" y="1430" width="120" height="40" as="geometry" />
        </mxCell>
        <mxCell id="X2BhTEOmSYzgq8DDmFFD-245" value="$$g_m&amp;nbsp; \simeq \frac{I_C}{V_T}$$" style="whiteSpace=wrap;html=1;fontSize=11;fillColor=#dae8fc;strokeColor=#6c8ebf;" vertex="1" parent="1">
          <mxGeometry x="360" y="1480" width="120" height="40" as="geometry" />
        </mxCell>
        <mxCell id="X2BhTEOmSYzgq8DDmFFD-246" value="$$g_o \simeq \frac{I_C}{V_A}$$" style="whiteSpace=wrap;html=1;fontSize=11;fillColor=#dae8fc;strokeColor=#6c8ebf;" vertex="1" parent="1">
          <mxGeometry x="360" y="1530" width="120" height="40" as="geometry" />
        </mxCell>
        <mxCell id="X2BhTEOmSYzgq8DDmFFD-250" value="$$g_i = g_r = 0$$" style="whiteSpace=wrap;html=1;fontSize=11;fillColor=#f5f5f5;strokeColor=#666666;fontColor=#333333;" vertex="1" parent="1">
          <mxGeometry x="860" y="1180" width="120" height="40" as="geometry" />
        </mxCell>
        <mxCell id="X2BhTEOmSYzgq8DDmFFD-253" value="$$g_\mu \simeq 0$$" style="whiteSpace=wrap;html=1;fontSize=11;fillColor=#f5f5f5;strokeColor=#666666;fontColor=#333333;" vertex="1" parent="1">
          <mxGeometry x="360" y="1580" width="120" height="40" as="geometry" />
        </mxCell>
        <mxCell id="X2BhTEOmSYzgq8DDmFFD-256" value="" style="edgeStyle=orthogonalEdgeStyle;rounded=0;orthogonalLoop=1;jettySize=auto;html=1;fontSize=11;endArrow=block;endFill=1;" edge="1" source="X2BhTEOmSYzgq8DDmFFD-257" target="X2BhTEOmSYzgq8DDmFFD-258" parent="1">
          <mxGeometry relative="1" as="geometry" />
        </mxCell>
        <mxCell id="X2BhTEOmSYzgq8DDmFFD-257" value="&lt;font style=&quot;font-size: 12px;&quot;&gt;LINEARIZZANDO IN UN PUNTO DI LAVORO \(Q=(V_{BE},V_{CE})\)&lt;/font&gt;" style="whiteSpace=wrap;html=1;fontSize=15;fillColor=#0066CC;strokeColor=default;fontColor=#FFFFFF;" vertex="1" parent="1">
          <mxGeometry x="10" y="1430" width="200" height="40" as="geometry" />
        </mxCell>
        <mxCell id="X2BhTEOmSYzgq8DDmFFD-259" style="edgeStyle=orthogonalEdgeStyle;rounded=0;orthogonalLoop=1;jettySize=auto;html=1;entryX=0;entryY=0.5;entryDx=0;entryDy=0;fontSize=12;endArrow=none;endFill=0;" edge="1" parent="1" source="X2BhTEOmSYzgq8DDmFFD-258" target="X2BhTEOmSYzgq8DDmFFD-244">
          <mxGeometry relative="1" as="geometry" />
        </mxCell>
        <mxCell id="X2BhTEOmSYzgq8DDmFFD-260" style="edgeStyle=orthogonalEdgeStyle;rounded=0;orthogonalLoop=1;jettySize=auto;html=1;entryX=0;entryY=0.5;entryDx=0;entryDy=0;fontSize=12;endArrow=none;endFill=0;" edge="1" parent="1" source="X2BhTEOmSYzgq8DDmFFD-258" target="X2BhTEOmSYzgq8DDmFFD-245">
          <mxGeometry relative="1" as="geometry" />
        </mxCell>
        <mxCell id="X2BhTEOmSYzgq8DDmFFD-261" style="edgeStyle=orthogonalEdgeStyle;rounded=0;orthogonalLoop=1;jettySize=auto;html=1;entryX=0;entryY=0.5;entryDx=0;entryDy=0;fontSize=12;endArrow=none;endFill=0;" edge="1" parent="1" source="X2BhTEOmSYzgq8DDmFFD-258" target="X2BhTEOmSYzgq8DDmFFD-246">
          <mxGeometry relative="1" as="geometry" />
        </mxCell>
        <mxCell id="X2BhTEOmSYzgq8DDmFFD-262" style="edgeStyle=orthogonalEdgeStyle;rounded=0;orthogonalLoop=1;jettySize=auto;html=1;entryX=0;entryY=0.5;entryDx=0;entryDy=0;fontSize=12;endArrow=none;endFill=0;" edge="1" parent="1" source="X2BhTEOmSYzgq8DDmFFD-258" target="X2BhTEOmSYzgq8DDmFFD-253">
          <mxGeometry relative="1" as="geometry" />
        </mxCell>
        <mxCell id="X2BhTEOmSYzgq8DDmFFD-258" value="$$i_b = g_\pi v_{be} \\ i_c = g_m v_{be} + g_o v_{ce}$$" style="whiteSpace=wrap;html=1;fontSize=11;fillColor=#e1d5e7;strokeColor=#9673a6;" vertex="1" parent="1">
          <mxGeometry x="30" y="1500" width="160" height="50" as="geometry" />
        </mxCell>
        <mxCell id="X2BhTEOmSYzgq8DDmFFD-266" style="rounded=0;orthogonalLoop=1;jettySize=auto;html=1;entryX=0.364;entryY=0;entryDx=0;entryDy=0;entryPerimeter=0;fontSize=12;endArrow=block;endFill=1;exitX=0;exitY=0.5;exitDx=0;exitDy=0;" edge="1" parent="1" source="X2BhTEOmSYzgq8DDmFFD-264" target="X2BhTEOmSYzgq8DDmFFD-265">
          <mxGeometry relative="1" as="geometry" />
        </mxCell>
        <mxCell id="X2BhTEOmSYzgq8DDmFFD-264" value="EFFETTI REATTIVI MOS" style="whiteSpace=wrap;html=1;fontSize=15;fillColor=#0000CC;fontColor=#FFFFFF;" vertex="1" parent="1">
          <mxGeometry x="680" y="1480" width="120" height="50" as="geometry" />
        </mxCell>
        <mxCell id="X2BhTEOmSYzgq8DDmFFD-269" style="edgeStyle=orthogonalEdgeStyle;rounded=0;orthogonalLoop=1;jettySize=auto;html=1;entryX=0;entryY=0.5;entryDx=0;entryDy=0;fontSize=12;endArrow=block;endFill=1;" edge="1" parent="1" source="X2BhTEOmSYzgq8DDmFFD-265" target="X2BhTEOmSYzgq8DDmFFD-267">
          <mxGeometry relative="1" as="geometry">
            <Array as="points">
              <mxPoint x="880" y="1585" />
              <mxPoint x="880" y="1550" />
            </Array>
          </mxGeometry>
        </mxCell>
        <mxCell id="X2BhTEOmSYzgq8DDmFFD-270" style="edgeStyle=orthogonalEdgeStyle;rounded=0;orthogonalLoop=1;jettySize=auto;html=1;entryX=0;entryY=0.5;entryDx=0;entryDy=0;fontSize=12;endArrow=block;endFill=1;" edge="1" parent="1" source="X2BhTEOmSYzgq8DDmFFD-265" target="X2BhTEOmSYzgq8DDmFFD-268">
          <mxGeometry relative="1" as="geometry">
            <Array as="points">
              <mxPoint x="880" y="1585" />
              <mxPoint x="880" y="1620" />
            </Array>
          </mxGeometry>
        </mxCell>
        <mxCell id="X2BhTEOmSYzgq8DDmFFD-271" value="&lt;font style=&quot;font-size: 9px;&quot;&gt;analisi nel dom. di Laplace&lt;br&gt;&lt;/font&gt;" style="edgeLabel;html=1;align=center;verticalAlign=middle;resizable=0;points=[];fontSize=12;" vertex="1" connectable="0" parent="X2BhTEOmSYzgq8DDmFFD-270">
          <mxGeometry x="-0.6864" y="1" relative="1" as="geometry">
            <mxPoint x="37" y="-1" as="offset" />
          </mxGeometry>
        </mxCell>
        <mxCell id="X2BhTEOmSYzgq8DDmFFD-265" value="&lt;div&gt;per segnali che variano rapidamente, si manifestano effetti reattivi, descrivibili con capacità parassite in generale non-lineari.&lt;/div&gt;" style="whiteSpace=wrap;html=1;fontSize=12;fillColor=#f5f5f5;fontColor=#333333;strokeColor=#666666;" vertex="1" parent="1">
          <mxGeometry x="530" y="1550" width="220" height="70" as="geometry" />
        </mxCell>
        <mxCell id="X2BhTEOmSYzgq8DDmFFD-267" value="a bassa frequenza \(|s| \rightarrow 0\)" style="whiteSpace=wrap;html=1;fontSize=12;fillColor=#0066CC;" vertex="1" parent="1">
          <mxGeometry x="900" y="1530" width="120" height="40" as="geometry" />
        </mxCell>
        <mxCell id="X2BhTEOmSYzgq8DDmFFD-273" style="rounded=0;orthogonalLoop=1;jettySize=auto;html=1;entryX=0;entryY=0.5;entryDx=0;entryDy=0;fontSize=9;endArrow=block;endFill=1;exitX=1;exitY=0.5;exitDx=0;exitDy=0;" edge="1" parent="1" source="X2BhTEOmSYzgq8DDmFFD-268" target="X2BhTEOmSYzgq8DDmFFD-272">
          <mxGeometry relative="1" as="geometry" />
        </mxCell>
        <mxCell id="X2BhTEOmSYzgq8DDmFFD-268" value="ad alta frequenza \(|s| \rightarrow \infty\)" style="whiteSpace=wrap;html=1;fontSize=12;fillColor=#0066CC;" vertex="1" parent="1">
          <mxGeometry x="900" y="1600" width="120" height="40" as="geometry" />
        </mxCell>
        <mxCell id="X2BhTEOmSYzgq8DDmFFD-272" value="il transistore si comporta sempre meno come un blocco funzionale analogico" style="whiteSpace=wrap;html=1;fontSize=9;fillColor=#f5f5f5;fontColor=#333333;strokeColor=#666666;" vertex="1" parent="1">
          <mxGeometry x="1050" y="1560" width="100" height="60" as="geometry" />
        </mxCell>
      </root>
    </mxGraphModel>
  </diagram>
</mxfile>
